<svg id="bbdb0d26-df25-4d0d-8c05-ef33e1656038" data-name="ad0471be-8530-42a8-ae1e-e1fc38ff0386" xmlns="http://www.w3.org/2000/svg" viewBox="0 0 498.23 27.91">
  <g id="a5f4b068-5e8e-43f2-9757-1097c703c775" data-name="b5011f75-4787-4e79-ad78-52fbbcd960ec">
    <path d="M472.22,21.75l-2.55,3.05,2.55-5V17.62l-4.74,5.65,4.19-8.19.54-.65V12.67l-.24.47-1.43-1.68,1-2,.67.79v-1l-.37-.43.37-.72V6.83l-.8,1.56L470,6.71l1-1.95,1.23,1.44v-1l-.92-1.08.92-1.79V1.09l-.89-1h-.81l1.39,1.64-1,2L469.44,2l1-1.92h-.69L469,1.47,467.82.06h-1.07l-.92,1.78L464.46.21l.08-.16h-1l.21.24-1,2L461.29.57l.27-.53h-1.5l.52.62-1,2L458.13,1l.46-.89h-.69l-.2.38-.33-.38h-.81l.53.62-2-.62h-2L455.58,3l-3.65-1.15L450.41.06h-.81l1.23,1.44L447.17.35l-.25-.29h-2.73l2.62.83,2.5,2.94-3.67-1.15-1.19-1.41v.94l.09.11-2.92-.92a.32.32,0,0,0-.37.15l-8.86,17.3-15.72-5v.65l15.78,5a.32.32,0,0,0,.37-.15L441.69,2l3.61,1.14L447.72,6l-4.8-1.51a.32.32,0,0,0-.37.15L433.69,22l-17-5.37v.65l17.08,5.39a.32.32,0,0,0,.37-.15L443,5.21l1.47.46v.64l1.75,2.06-2-.62a.32.32,0,0,0-.37.15L435,25.2l-18.35-5.78v.64l18.41,5.81a.32.32,0,0,0,.37-.15l8.86-17.3,2.64.83,2.5,2.94L445.78,11l-1.34-1.59v1l.7.83-8.5,16.6h.69L444.44,14v.34l.15-.18a.3.3,0,0,0,0-.4h0l1-2L447.44,14l-.28.34-.25-.08a.32.32,0,0,0-.37.15l-.87,1.7-1.23,1.46v.92l-4.8,9.41h.69l5.86-11.45,1.18-1.4,2.13.66L448,17.46a.28.28,0,0,0-.09.1h0l-3.42,4.08v1L446.6,20l-4,7.8h.69l5-9.77,2.07.66-5.94,7.08v1l4.36-5.19-3.21,6.27H447L451.91,22l2.12.67-1.43,1.7-1.7-.54a.32.32,0,0,0-.37.15l-2,3.84h.69l1.7-3.33,1.21.38-2.46,3h.81l2.3-2.75,2.11.67-1.43,1.7-1.26-.4a.32.32,0,0,0-.37.15l-.31.62h.69l.05-.11.33.11h2.05l-.54-.18,1.43-1.7,2.12.67-1,1.21h.81l.84-1,2.12.67-.29.34H461l.11-.14.43.14h2l-2-.65,1.43-1.7,2.12.67-1.41,1.68h.81l1.23-1.48,2.12.67-.67.82H468l4.28-5.1v-1Zm-5.42,1.49-1.57-.5,4.67-5.56Zm4.88-9.51-.51,1-6.57,7.83-2.12-.67,1.43-1.71,1.62.51a.32.32,0,0,0,.37-.15L470.26,12Zm-20.1,0-.26-.31,2.8.88L452.69,16l-2.12-.67,1-1.21a.29.29,0,0,0,0-.39Zm12.11,5.75-2.12-.67,1.43-1.7,1.19.38a.32.32,0,0,0,.37-.15l2.5-4.9L468.34,14Zm4-3.83L465.46,20l-1.13-.36Zm-9.17-1.92-1-1.13,3.67,1.15.15.18L460,15.53l-2.12-.67.62-.73a.32.32,0,0,0,0-.39h0Zm7,0-1.3-1.54,1-1.95,1.43,1.67L465.56,14a.29.29,0,0,0-.06-.27h0Zm0,.36-1.39,2.73-.7-.22,2.07-2.46,0-.05Zm-.66-.16-2.07,2.46-2.12-.67,1.35-1.6.06-.11.78.25a.32.32,0,0,0,.37-.15l.67-1.32Zm-2.06-.33-1.21-.38-2.5-2.94,2.44.77a.32.32,0,0,0,.37-.15l.15-.29,1.43,1.68Zm-2.32-.73-3.66-1.15-2.5-2.94L458,9.93ZM459.61,16l-1.43,1.71-2.12-.67,1.43-1.7Zm-1.23,2.41,2.12.67-1.42,1.71L457,20.16Zm.43-.51,1.43-1.7,2.12.67-1.43,1.7Zm8.56-6.11,1-2,1.43,1.68-1,2Zm.88-3.08L466.82,7l1-1.95,1.43,1.68Zm-.31.6-1,2-1.41-1.67,1-2Zm-2.87-.23-1.43-1.68,1-2,1.43,1.68Zm-.3.6-1,2L462.34,10l1-2Zm-2.87-.23-1.4-1.65a.28.28,0,0,0,.09-.1l.94-1.85,1.38,1.63Zm-.31.59-.14.28-3.13-1-2.42-2.8,3.65,1.15Zm-4.38-1-3.64-1.13L451.15,5l3.66,1.15Zm-1.5,2.32-3.65-1.15-2.48-2.92,3.64,1.14Zm.75.89,1.43,1.68-.62.73L455.12,14a.32.32,0,0,0-.06-.25l-2.24-2.63Zm.38,2.92-1.43,1.7-2.1-.64,1.43-1.71Zm-4,1.54,2.12.67-1.43,1.7-2.12-.67Zm2.75.86,2.12.67-1.43,1.71-2.1-.65Zm.9,3.08,2.12.66L457.21,23l-2.1-.64Zm2.77.87,2.11.67L460,23.91l-2.12-.67Zm.43-.51,1.43-1.71,2.12.67-1.44,1.73ZM471.11,9l-1,2-1.43-1.68,1-2Zm-2-6.43,1.44,1.7-1,2-1.43-1.7ZM467.27.35,468.71,2l-1,2-1.43-1.68ZM466,2.91l1.43,1.68-1,2L465,4.87ZM464.14.78l1.38,1.63-1,2-1.38-1.63Zm-1.31,2.56L464.21,5l-1,2-1.38-1.6ZM461,1.15l1.43,1.68-1,2L460,3.13ZM459.69,3.7l1.43,1.68-.92,1.85-.2-.08-2.5-2.94,1.47.46a.32.32,0,0,0,.37-.15ZM454.18.38l3.39,1.07a.31.31,0,0,0,.19,0l1.49,1.75-.41.81-2.15-.68Zm2.15,3.48,2.5,2.94-3.65-1.15-2.5-2.94ZM447.92,1.2l3.66,1.15,2.5,2.94-3.66-1.15Zm-1.51,2.33,3.64,1.17,2.42,2.84-3.65-1.15Zm-1.59,2.22,3.64,1.18L451,9.87l-3.65-1.15Zm3.24,3.85,3.65,1.15,2.5,2.94-3.65-1.15Zm-.25,4.86.29-.34a.3.3,0,0,0,0-.4l-1.54-1.81,3.66,1.15.73.86-1,1.2Zm.89,3.08,1.42-1.7,2.12.68-1.43,1.7Zm-2.3,10.1,3.25-6.35,1.64.52Zm5.32-6.34-2.12-.67,1.43-1.7,2.12.67Zm.63.2,1.43-1.7,2.12.67-1.43,1.7Zm3,3.74-2.12-.67,1.43-1.7,2.12.67Zm2.77.87L456,25.45l1.43-1.7,2.12.67Zm2.77.87-2.15-.67,1.43-1.7,2.12.67Zm1.85-2.21-2.12-.67,1.43-1.7,2.12.67Zm2.74.87L463.37,25l1.43-1.7,2.07.64h.07Zm.65.2,6-7.12-4,7.75Z" transform="translate(0 -0.01)" style="fill: #fff"/>
    <path d="M361.12,9.07v.65l2.43.77a.32.32,0,0,0,.37-.15L369.2,0h-.69l-5,9.79Z" transform="translate(0 -0.01)" style="fill: #fff"/>
    <polygon points="273.96 0.04 273.97 0.02 273.28 0.02 273.26 0.04 273.96 0.04" style="fill: #fff"/>
    <path d="M305.33,27.27a.32.32,0,0,0,.37-.15l8.86-17.3,18.55,5.85a.32.32,0,0,0,.37-.15L341.41,0h-.69l-7.67,15L314.5,9.13a.32.32,0,0,0-.37.15L305.56,26v-.52l-.79,1-2.12-.67,1.44-1.72a.32.32,0,0,0,.28-.16l.22-.43,1-1.17v-.75l7.66-15,18.55,5.85a.32.32,0,0,0,.37-.15L338.43,0h-.69l-6,11.75L313.2,5.93h-.06a.3.3,0,0,0-.34.16l-8.73,17.05-.2.24-2.13-.66,3.82-4.54v-1l-1.91,2.28,8.25-16.1,18.55,5.85a.32.32,0,0,0,.37-.15l4.63-9h-.69l-4.37,8.53L311.82,2.71a.32.32,0,0,0-.37.15l-8.86,17.31-1.75-.55,4.62-5.49a.3.3,0,0,0,0-.4l-1.15-1.36,1-2,.25.31V9.93l5-9.76L329.11,6a.32.32,0,0,0,.37-.15l3-5.82h-.69l-2.72,5.31L312.21,0H310l-4.81,9.3-1.38-1.63,1-2,.76.89V5.66l-.46-.53L307.72,0H307L304.65,4.6l-1.43-1.68,1-2,1.31,1.54V1.57l-1-1.18.18-.35h-1.25l.35.41-1,2L301.41.76l.37-.72h-.69L301,.26l-.16-.19H300l.65.76-1,2-1.43-1.66L298.78,0h-.69l-.31.58L297.3.06h-.8l1,1.15-1,2-1.43-1.69h0L295.8,0h-.69l-.47.92h-.07l-.74-.86H293l.44.51L291.74,0h-2.19L292,2.9l-3.7-1.17L286.87,0H286l1.14,1.34L283.42.19,283.29,0h-2.45l2.26.71,2.5,2.94-3.71-1.15L279.79,0H279l1.81,2.11-2-.63h-.06a.3.3,0,0,0-.34.16l-.26.5-.35-.42v1l.05.06-.05.1V4.21l.48-.92L279.68,5l-1,2-.91-1.07v1l.6.7-.6,1.18v2.09l1.15,1.35-1.15,2.25v1.35l1.59-3.08,1,1.16L277.76,17V18l2.95-3.51-2.95,5.75V22.1L282.9,16l-4.2,8.19-.94,1.12v2.07l1.46-2.84,7.34-8.75,2.12.67-1.43,1.7-1.88-.59a.32.32,0,0,0-.37.15l-4.11,8-1.78,2.12h1.39l.92-1.78,6-7.19,2.12.67-1.43,1.7-1.45-.46a.32.32,0,0,0-.37.15l-3.24,6.33-.5.59h.89l.13-.25L288.32,22l2.19.69-1.43,1.7L288,24a.32.32,0,0,0-.37.15l-1.9,3.69H287l2.36-2.8,2.12.68L290,27.38l-.65-.2a.32.32,0,0,0-.37.15l-.25.49h2.64l-.76-.23,1.43-1.7,2.12.67-1.05,1.26h.81l.89-1.07,2.12.67-.34.4h.79l.17-.2.62.2h2.69l1.29-1.54,2.15.66-.74.87h.8l.57-.67Zm-22.64-3.7,2.77-5.39,1.39.44Zm2.2,1.54,1.9-3.69,1,.31ZM287,26.92l1.17-2.28.58.19Zm15.58-6.13-1.42,1.7L299,21.82l1.43-1.7ZM295,13.71l-1-1.18,3.77,1.22.16.19-1.29,1.54-2.19-.69.55-.65a.32.32,0,0,0,0-.41h0Zm2-.87-3.77-1.19-2.5-2.94,3.77,1.2Zm-1.39-2.59,3.15,1a.32.32,0,0,0,.31-.07l1.44,1.69-.47.92-1.92-.62Zm.59,5.73-1.43,1.7L292.52,17l1.43-1.7Zm-1.24,2.41,2.12.67-1.43,1.7-2.12-.67Zm2.76.87,2.12.67-1.43,1.7L296.24,21Zm-.21-.71-2.12-.67,1.43-1.7,2.13.65Zm-.26-2.89,1.29-1.54a.23.23,0,0,0,.06-.12l1.48.47a.32.32,0,0,0,.37-.15l.48-.92.46.54-2,2.4ZM302,14.13a.3.3,0,0,0,0-.4l-.79-.92,1-2,1.38,1.63L301.27,17,300,16.53Zm.08-4.4L300.62,8l1-2,1.43,1.68Zm-.31.59-1,2-1.43-1.68,1-2Zm-2.87-.22L297,7.94l.31.1a.3.3,0,0,0,.4-.14l.73-1.43,1.42,1.67Zm-.43.44-3.66-1.15-2.5-2.94L296,7.6ZM293.68,9l-3.77-1.19-2.5-2.94,3.77,1.19Zm-1.63,2.28-3.66-1.15-2.5-2.94,3.66,1.15Zm-4.76-1.5-3.65-1.15-2.5-2.94,3.67,1.15ZM285.73,12l-3-.95a.32.32,0,0,0-.36.14L281,9.62l.51-1,1.81.57Zm-1.31-2.5,3.64,1.15,2.42,2.84-3.65-1.15Zm4.75,1.5,3.64,1.16,1.47,1.73-.54.65-2.24-.7a.35.35,0,0,0-.06-.14Zm4.16,4-1.44,1.7L289.77,16l1.43-1.7Zm-1.23,2.41,2.19.69-1.43,1.7-2.2-.69Zm1,3.1,2.12.67L293.73,23l-2.12-.67Zm2.76.87,2.12.67-1.43,1.7-2.11-.67Zm2.77.87,2.11.67-1.43,1.7L297.15,24Zm6.23-8.41-4.62,5.49-2.12-.67,1.43-1.7,1.8.57a.32.32,0,0,0,.37-.15L304,13Zm.06-4-1,2-1.38-1.63,1-2ZM303,3.53l1.43,1.68-1,2L302,5.53Zm-1.9-2.19L302.53,3l-1,2-1.44-1.7ZM299.77,3.9l1.43,1.68-1,2L298.77,5.9Zm-1.84-2.19,1.43,1.68-1,2-1.43-1.68Zm-1.52,3,.21-.4L298.05,6l-.73,1.43-1-.31-2.5-2.94,2.21.69a.31.31,0,0,0,.37-.15ZM290.56.3l3.65,1.14,2,2.31-.2.4-2.91-.92Zm2.16,3.47,2.5,2.94-3.67-1.15-2.5-2.94Zm-8.54-2.69L288,2.27l2.5,2.94L286.68,4Zm2.16,3.48,2.47,2.94-3.66-1.15-2.5-2.94Zm-7.75-1.87.25-.49,2.74.86L284.08,6l-3.65-1.15Zm1.56,2.77,2.42,2.85L281.42,8a.32.32,0,0,0-.37.15l-.51,1-1.43-1.68Zm-.89,6.2L277.83,10l1-2,1.43,1.68Zm.43.5,1-2,1.38,1.63-1,2a.15.15,0,0,0-.06-.09Zm-1.39,8.36,4.19-8.17,1.35,1.58Zm2.2,1.54,3.62-7,1.83.58Zm5.88-7-2.12-.67.22-.26a.3.3,0,0,0,0-.4l-1.66-2,3.65,1.15.85,1Zm.63.2.95-1.13a.3.3,0,0,0,0-.4l-.38-.45,3,.94-1.44,1.69Zm.9,3.08,1.43-1.7,2.12.67L290,19Zm.9,3.08,1.43-1.7,2.19.69L291,22.1Zm3.08,3.77-2.11-.66,1.43-1.7,2.12.67Zm2.77.88-2.12-.67L294,23.7l2.11.67Zm2.75.87-2.14-.68,1.43-1.7,2.12.67Zm2.74.86L298,27.12l1.42-1.7,2.12.67ZM302,25.57l-2.11-.67,1.43-1.7,2.12.67Z" transform="translate(0 -0.01)" style="fill: #fff"/>
    <path d="M359.92.67l.31-.65h-.69l-.07.14L359,0h-2l2.56.79A.29.29,0,0,0,359.92.67Z" transform="translate(0 -0.01)" style="fill: #fff"/>
    <path d="M361.12,4V2.79l-.31.59L350.17,0h-2l12.76,4A.31.31,0,0,0,361.12,4Z" transform="translate(0 -0.01)" style="fill: #fff"/>
    <polygon points="276.94 0.04 276.95 0.02 276.26 0.02 276.25 0.04 276.94 0.04" style="fill: #fff"/>
    <path d="M328.17,2.71,329.55,0h-.69l-1.11,2.18L320.83,0h-2.05l9,2.84A.3.3,0,0,0,328.17,2.71Z" transform="translate(0 -0.01)" style="fill: #fff"/>
    <path d="M361.12,6.27v.65l1.1.34a.32.32,0,0,0,.37-.15L366.22,0h-.69l-3.36,6.57Z" transform="translate(0 -0.01)" style="fill: #fff"/>
    <path d="M361.12,4a.4.4,0,0,0,.13-.13l2-3.87h-.69l-1.42,2.77Z" transform="translate(0 -0.01)" style="fill: #fff"/>
    <path d="M361.12,14.67v.65l5.1,1.61a.32.32,0,0,0,.37-.15L375.16,0h-.69l-8.31,16.23Z" transform="translate(0 -0.01)" style="fill: #fff"/>
    <path d="M361.12,11.87v.65l3.76,1.19a.32.32,0,0,0,.37-.15L372.17,0h-.69l-6.66,13Z" transform="translate(0 -0.01)" style="fill: #fff"/>
    <path d="M378.12,5.32h-.06a.3.3,0,0,0-.34.16l-8.86,17.31-7.73-2.44V21l7.79,2.46a.32.32,0,0,0,.37-.15L378.15,6l18.55,5.85a.32.32,0,0,0,.37-.15l6-11.65h-.69l-5.7,11.13Z" transform="translate(0 -0.01)" style="fill: #fff"/>
    <polygon points="401.72 0.04 401.69 0.02 400.89 0.02 400.91 0.04 401.72 0.04" style="fill: #fff"/>
    <polygon points="405.2 0.04 405.18 0.02 404.37 0.02 404.39 0.04 405.2 0.04" style="fill: #fff"/>
    <polygon points="398.23 0.04 398.21 0.02 397.4 0.02 397.42 0.04 398.23 0.04" style="fill: #fff"/>
    <path d="M394.35,5.15,397,0h-.69L394,4.63,379.29,0h-2.05L394,5.3A.29.29,0,0,0,394.35,5.15Z" transform="translate(0 -0.01)" style="fill: #fff"/>
    <polygon points="391.18 0.04 391.16 0.02 390.35 0.02 390.37 0.04 391.18 0.04" style="fill: #fff"/>
    <path d="M393,1.93,394,0h-.7l-.71,1.41L388.15,0h-2.06l6.55,2.06A.29.29,0,0,0,393,1.93Z" transform="translate(0 -0.01)" style="fill: #fff"/>
    <polygon points="412.17 0.04 412.14 0.02 411.34 0.02 411.36 0.04 412.17 0.04" style="fill: #fff"/>
    <polygon points="408.68 0.04 408.66 0.02 407.85 0.02 407.87 0.04 408.68 0.04" style="fill: #fff"/>
    <path d="M361.12,23.77l9.12,2.88a.32.32,0,0,0,.37-.15l8.87-17.3L398,15a.32.32,0,0,0,.37-.15L406,0h-.69L398,14.37,379.42,8.52a.32.32,0,0,0-.37.15L370.19,26l-9.06-2.86-9.48-3a.32.32,0,0,0-.37.15l-3.86,7.54h.69l3.6-7Z" transform="translate(0 -0.01)" style="fill: #fff"/>
    <polygon points="415.08 0.04 416.67 0.54 416.67 0.04 416.67 0.02 414.82 0.02 414.84 0.04 415.08 0.04" style="fill: #fff"/>
    <path d="M376.74,2.09a.32.32,0,0,0-.37.15l-8.86,17.3-6.4-2v.64l6.47,2A.32.32,0,0,0,368,20h0l8.86-17.3,18.55,5.85a.32.32,0,0,0,.37-.15L400,0h-.7l-4,7.92Z" transform="translate(0 -0.01)" style="fill: #fff"/>
    <polygon points="472.22 25.91 471.87 26.33 472.22 25.64 472.22 24.29 470.41 27.82 471.1 27.82 471.42 27.82 472.22 26.86 472.22 25.91" style="fill: #fff"/>
    <path d="M418.78,26l-1,1.88h.69l.7-1.37,4.35,1.37h2l-6.45-2A.29.29,0,0,0,418.78,26Z" transform="translate(0 -0.01)" style="fill: #fff"/>
    <polygon points="416.67 24.24 414.83 27.82 415.53 27.82 416.67 25.59 416.67 24.24" style="fill: #fff"/>
    <polygon points="473.41 0.04 473.42 0.02 472.73 0.02 472.71 0.04 473.41 0.04" style="fill: #fff"/>
    <polygon points="475.56 0.04 475.47 0.02 473.43 0.02 473.51 0.04 475.56 0.04" style="fill: #fff"/>
    <path d="M417.44,22.73l-.78,1.51v1.35l1.21-2.35,14.54,4.59h2L417.8,22.58A.31.31,0,0,0,417.44,22.73Z" transform="translate(0 -0.01)" style="fill: #fff"/>
    <polygon points="484.44 0.04 484.35 0.02 482.3 0.02 482.39 0.04 484.44 0.04" style="fill: #fff"/>
    <path d="M416.67,20.07v-.65l-.19-.06a.32.32,0,0,0-.37.15l-4.26,8.31h.69l4-7.8Z" transform="translate(0 -0.01)" style="fill: #fff"/>
    <path d="M387.07,27.83h.55l-.24-.08A.32.32,0,0,0,387.07,27.83Z" transform="translate(0 -0.01)" style="fill: #fff"/>
    <path d="M416.67,17.27v-.65l-1.52-.48a.32.32,0,0,0-.37.15l-5.91,11.54h.69l5.64-11Z" transform="translate(0 -0.01)" style="fill: #fff"/>
    <path d="M385.71,24.77l-1.57,3.06h.69l1.31-2.55,8.08,2.55h2L386,24.62A.3.3,0,0,0,385.71,24.77Z" transform="translate(0 -0.01)" style="fill: #fff"/>
    <path d="M416.67,14.54v-.65L413.85,13a.31.31,0,0,0-.37.15L406,27.82h.69l7.25-14.16Z" transform="translate(0 -0.01)" style="fill: #fff"/>
    <path d="M431.06,15.64,416.67,11.1v.65l14.45,4.56a.32.32,0,0,0,.37-.15L439.73.07H439Z" transform="translate(0 -0.01)" style="fill: #fff"/>
    <path d="M412.57,10.45l4.09,1.29V11.1l-4.15-1.31a.32.32,0,0,0-.37.15l-8.85,17.3-18.55-5.85a.32.32,0,0,0-.37.15l-3.21,6.28h.69L384.8,22l18.29,5.77h.57l.06-.07Z" transform="translate(0 -0.01)" style="fill: #fff"/>
    <path d="M430.16,12.93,436.75,0h-.69l-6.33,12.37L416.68,8.3v.64l13.11,4.14A.31.31,0,0,0,430.16,12.93Z" transform="translate(0 -0.01)" style="fill: #fff"/>
    <polygon points="495.23 0.04 495.25 0.02 494.56 0.02 494.54 0.04 495.23 0.04" style="fill: #fff"/>
    <polygon points="498.21 0.04 498.23 0.02 497.54 0.02 497.52 0.04 498.21 0.04" style="fill: #fff"/>
    <polygon points="492.25 0.04 492.27 0.02 491.58 0.02 491.56 0.04 492.25 0.04" style="fill: #fff"/>
    <path d="M402,24.69a.32.32,0,0,0,.37-.15l8.87-17.3L416.66,9V8.3l-5.49-1.73a.32.32,0,0,0-.37.15L402,24l-18.6-5.84a.32.32,0,0,0-.37.15l-4.86,9.5h.69l4.6-9Z" transform="translate(0 -0.01)" style="fill: #fff"/>
    <path d="M400.68,21.48a.32.32,0,0,0,.37-.15L409.91,4l6.76,2.13V5.5l-6.82-2.16a.32.32,0,0,0-.37.15l-8.86,17.3-18.55-5.85a.32.32,0,0,0-.37.15l-6.51,12.72h.69l6.25-12.2Z" transform="translate(0 -0.01)" style="fill: #fff"/>
    <path d="M428.82,9.71,433.77,0h-.69L428.4,9.2,416.67,5.51v.65l11.78,3.71A.32.32,0,0,0,428.82,9.71Z" transform="translate(0 -0.01)" style="fill: #fff"/>
    <path d="M353.94,26.73l-.56,1.1h.7l.31-.59,1.85.59h2.05l-4-1.26A.32.32,0,0,0,353.94,26.73Z" transform="translate(0 -0.01)" style="fill: #fff"/>
    <path d="M427.49,6.49,430.79,0h-.69l-3,5.93L416.68,2.71v.65l10.45,3.29A.3.3,0,0,0,427.49,6.49Z" transform="translate(0 -0.01)" style="fill: #fff"/>
    <path d="M353,23.37a.54.54,0,0,0-.18,0,.33.33,0,0,0-.22.16l-2.22,4.32h.69L353,24l8.09,2.55,4,1.26h2.05l-6-1.91Z" transform="translate(0 -0.01)" style="fill: #fff"/>
    <path d="M399.35,18.26a.32.32,0,0,0,.37-.15L408.57.81l8.09,2.55V2.7L408.51.13a.32.32,0,0,0-.37.15l-8.86,17.3-18.55-5.85a.32.32,0,0,0-.37.15l-8.15,15.93h.69l7.9-15.42Z" transform="translate(0 -0.01)" style="fill: #fff"/>
    <path d="M426.15,3.28,427.8.06h-.69l-1.39,2.71L417.12.06h-.45V.55l9.11,2.87A.31.31,0,0,0,426.15,3.28Z" transform="translate(0 -0.01)" style="fill: #fff"/>
    <path d="M361.12,21v-.65L350.31,17a.32.32,0,0,0-.37.15l-5.51,10.76h.69l5.23-10.25Z" transform="translate(0 -0.01)" style="fill: #fff"/>
    <path d="M424.82.06H424l.5.15A.32.32,0,0,0,424.82.06Z" transform="translate(0 -0.01)" style="fill: #fff"/>
    <path d="M321.17,25.31a.32.32,0,0,0-.35.16l-1.21,2.36h.69l.95-1.85,5.86,1.85h2.05l-7.93-2.5Z" transform="translate(0 -0.01)" style="fill: #fff"/>
    <path d="M361.12,18.18v-.64L349,13.71a.32.32,0,0,0-.37.15l-7.15,14h.69L349,14.36Z" transform="translate(0 -0.01)" style="fill: #fff"/>
    <path d="M361.12,15.31v-.64L347.61,10.4a.32.32,0,0,0-.37.15l-8.87,17.27h.71l8.58-16.76Z" transform="translate(0 -0.01)" style="fill: #fff"/>
    <path d="M319.46,22.17l-2.9,5.66h.69l2.65-5.15,16.32,5.15h2L319.84,22A.31.31,0,0,0,319.46,22.17Z" transform="translate(0 -0.01)" style="fill: #fff"/>
    <path d="M337.1,25.31a.32.32,0,0,0,.37-.15l8.86-17.3,14.78,4.67v-.65L346.27,7.2a.32.32,0,0,0-.37.15L337,24.65,318.46,18.8a.32.32,0,0,0-.37.15l-4.55,8.88h.69l4.29-8.37Z" transform="translate(0 -0.01)" style="fill: #fff"/>
    <path d="M335.77,22.09a.32.32,0,0,0,.37-.15L345,4.63l16.12,5.08V9.07L344.94,4a.32.32,0,0,0-.37.15l-8.87,17.3-18.54-5.85a.32.32,0,0,0-.37.15l-6.19,12.1h.68l5.94-11.58Z" transform="translate(0 -0.01)" style="fill: #fff"/>
    <path d="M334.44,18.88a.32.32,0,0,0,.37-.15l8.86-17.3,17.45,5.5V6.27L343.61.75a.32.32,0,0,0-.37.15l-8.87,17.3-18.55-5.85a.32.32,0,0,0-.37.15l-7.84,15.32h.69L315.89,13Z" transform="translate(0 -0.01)" style="fill: #fff"/>
    <polygon points="222.22 26.12 221.35 27.82 222.04 27.82 222.22 27.47 222.22 26.12" style="fill: #fff"/>
    <path d="M222.22,22.29v-.65l-.34-.11a.32.32,0,0,0-.37.15l-3.15,6.16h.69l2.88-5.63Z" transform="translate(0 -0.01)" style="fill: #fff"/>
    <path d="M222.22,19.49v-.64l-1.67-.53a.31.31,0,0,0-.37.15l-4.79,9.36h.69L220.61,19Z" transform="translate(0 -0.01)" style="fill: #fff"/>
    <path d="M222.22,16.69V16l-3-.92h-.06a.3.3,0,0,0-.34.16l-6.44,12.57h.69l6.18-12.07Z" transform="translate(0 -0.01)" style="fill: #fff"/>
    <polygon points="270.97 0.04 270.99 0.02 270.3 0.02 270.28 0.04 270.97 0.04" style="fill: #fff"/>
    <path d="M222.22,13.89v-.64l-4.31-1.36h-.06a.3.3,0,0,0-.34.16l-8.08,15.8h.69L218,12.54Z" transform="translate(0 -0.01)" style="fill: #fff"/>
    <polygon points="267.99 0.04 268.01 0.02 267.32 0.02 267.3 0.04 267.99 0.04" style="fill: #fff"/>
    <polygon points="253.84 0.04 253.75 0.02 251.7 0.02 251.79 0.04 253.84 0.04" style="fill: #fff"/>
    <polygon points="265.01 0.04 265.03 0.02 264.34 0.02 264.32 0.04 265.01 0.04" style="fill: #fff"/>
    <polygon points="262.03 0.04 262.05 0.02 260.57 0.02 260.66 0.04 262.03 0.04" style="fill: #fff"/>
    <path d="M158,25.6l-1.14,2.23h.69l.88-1.72,5.44,1.72h2l-7.55-2.38A.31.31,0,0,0,158,25.6Z" transform="translate(0 -0.01)" style="fill: #fff"/>
    <path d="M93.12,26.37l-.74,1.45h.69l.48-.94,3,.92h2l-5.08-1.6A.32.32,0,0,0,93.12,26.37Z" transform="translate(0 -0.01)" style="fill: #fff"/>
    <path d="M91.78,23.16,89.4,27.83h.69l2.13-4.16,13.18,4.16h2L92.16,23A.31.31,0,0,0,91.78,23.16Z" transform="translate(0 -0.01)" style="fill: #fff"/>
    <polygon points="238.1 0.04 238.08 0.02 237.27 0.02 237.29 0.04 238.1 0.04" style="fill: #fff"/>
    <polygon points="240.2 0.04 240.22 0.02 239.53 0.02 239.51 0.04 240.2 0.04" style="fill: #fff"/>
    <polygon points="237.22 0.04 237.24 0.02 236.55 0.02 236.53 0.04 237.22 0.04" style="fill: #fff"/>
    <polygon points="234.24 0.04 234.62 0.04 234.59 0.02 233.57 0.02 233.55 0.04 234.24 0.04" style="fill: #fff"/>
    <polygon points="243.19 0.04 243.2 0.02 242.51 0.02 242.49 0.04 243.19 0.04" style="fill: #fff"/>
    <polygon points="248.55 0.04 248.53 0.02 247.72 0.02 247.75 0.04 248.55 0.04" style="fill: #fff"/>
    <polygon points="245.07 0.04 245.04 0.02 244.24 0.02 244.26 0.04 245.07 0.04" style="fill: #fff"/>
    <polygon points="241.58 0.04 241.56 0.02 240.75 0.02 240.78 0.04 241.58 0.04" style="fill: #fff"/>
    <path d="M111.11,0h-.55l-6.51,12.71L85.5,6.92a.32.32,0,0,0-.37.15l-8.87,17.3L57.72,18.52a.32.32,0,0,0-.37.15l-1.79,3.48V23.5l2.21-4.31L76.31,25a.32.32,0,0,0,.37-.15L85.54,7.58l18.54,5.85a.32.32,0,0,0,.37-.15L111.22,0h-.11Z" transform="translate(0 -0.01)" style="fill: #fff"/>
    <polygon points="224.73 0.04 224.64 0.02 222.59 0.02 222.68 0.04 224.73 0.04" style="fill: #fff"/>
    <polygon points="222.22 2.05 215.77 0.02 213.72 0.02 222.22 2.69 222.22 2.05" style="fill: #fff"/>
    <path d="M197.07.89l.44-.86h-.69l-.18.35L195.53,0h-2.05l3.23,1A.33.33,0,0,0,197.07.89Z" transform="translate(0 -0.01)" style="fill: #fff"/>
    <path d="M194,22.56l13.39,4.22a.32.32,0,0,0,.37-.15l8.87-17.3,5.61,1.77v-.65l-5.67-1.79a.32.32,0,0,0-.37.15l-8.87,17.3L194.41,22l.05-.06V21l-.68.81-2.12-.67,1.41-1.71,13,4.09a.32.32,0,0,0,.37-.15l8.87-17.3,6.94,2.19V7.65l-7-2.22a.32.32,0,0,0-.37.15L206,22.89,193.53,19l.95-1.12v-.78l10.25,3.24a.32.32,0,0,0,.37-.15L214,2.9l8.28,2.61V4.86l-8.34-2.63a.32.32,0,0,0-.37.15l-8.86,17.3-12-3.8,1.43-1.7,9.34,3a.32.32,0,0,0,.37-.15l8.68-17h-.69l-8.42,16.44-9.43-3-2.5-2.94,10.66,3.36a.32.32,0,0,0,.37-.15l7-13.73h-.69L202,13.25l-7.53-2.38V10L193,8.22l7.82,2.46a.32.32,0,0,0,.37-.15L206.54,0h-.69l-5.13,10-8.53-2.68-2.5-2.94,3.66,1.15,1.15,1.35V6h-.05l5,1.57a.32.32,0,0,0,.37-.15L203.53,0h-.69l-3.48,6.77L193.66,5l-2.5-2.94,6.89,2.17a.32.32,0,0,0,.37-.15L200.51,0h-.69L198,3.59l-3.53-1.11V1.86L192.93,0h-.81l1.95,2.31L190.4,1.21l-1-1.15h-.81l.68.8L186.65,0H184.6l.68.21,2.5,2.94L184.12,2l-1.68-2h-.81L183,1.68,180.75,1a.32.32,0,0,0-.37.15l-.2.38L179,0h-1l-1,1.87L175.57.2l.08-.17h-1l.19.22-1,2L172.46.69,172.8,0h-.69L172,.18l-.1-.12h-.81l.62.71-1,2L169.3,1l.52-1h-.69l-.26.51L168.45,0h-.81l.92,1.08-1,2-.87-1V3l.57.66-1,1.94L148.47,0H147.3l-8.74,17.06-.12.14-2.12-.67,2.05-2.44a.3.3,0,0,0,0-.4l-.23-.27L145,0h-.69L138.9,10.58v-.33l-1.3-1.54,1-2,.31.38v-1L142,0h-.68l-2.88,5.62L137,4l1-2,.87,1V2.07l-.57-.67L139.05,0h-.69l-.45.87L137.19,0h-.81l1.23,1.44-1,2-1.43-1.68.9-1.75h-.69l-.64,1.23-1-1.22h-.63V0h-.69l-.58,1.13L131,.86l-.7-.82h-.81l.4.47L128.23,0H126l2.37,2.79L124.7,1.65,123.26,0h-.81l1.1,1.29L119.89.2l-.12-.14h-2.42l2.23.7L122,3.67l-3.66-1.15L116.28.06h-.8l1.8,2.11-1.34-.42a.32.32,0,0,0-.37.15l-.45.88L113.69,1.1,114.24,0h-.69l-.29.56L112.8.06H112l1,1.13-1,2-.82-1v.94l.52.62L105.38,16,86.83,10.14a.32.32,0,0,0-.37.15L77.58,27.6,59,21.75a.32.32,0,0,0-.37.15l-3,5.92h.69l2.77-5.42,17.19,5.42h1.87l8.72-17,18.54,5.85a.32.32,0,0,0,.37-.15l6.27-12.25L113.48,6l-1,2L111.1,6.26v1l1.07,1.26-1,2-.06-.08v.2l-4.42,8.62L88.14,13.32a.32.32,0,0,0-.37.15L80.43,27.81h.69L88.2,14l18.54,5.85a.32.32,0,0,0,.37-.15l4.18-8.17,1.43,1.68L108,22.41,89.5,16.57a.32.32,0,0,0-.37.15l-5.7,11.1h.69l5.42-10.59,18.55,5.85a.32.32,0,0,0,.37-.15l2.94-5.74,2.6-3.08a.3.3,0,0,0,0-.4l-.5-.59,1-2,1.43,1.68-2.83,5.54-2,2.34v.95l.7-.85-2.46,4.8L90.81,19.77a.32.32,0,0,0-.37.15l-4,7.9h.69l3.78-7.39,18.55,5.85a.32.32,0,0,0,.37-.15l3.8-7.42,3.86-4.62a.3.3,0,0,0,0-.4l-.81-.95,1-1.94,1.43,1.68-3.81,7.44-4.15,4.94v1L114,22.38l-2.77,5.44h.69l3.88-7.56L121,14.1a.3.3,0,0,0,0-.4l-1.13-1.33L120,12l3,1,.78.92-1,1.17-1.54-.49a.32.32,0,0,0-.37.15l-3.44,6.67-5.34,6.38h.81l3.28-3.92-2,3.91h.69l3.08-6,5-6,2.12.67-1.38,1.65-1.18-.38a.32.32,0,0,0-.37.15l-2.72,5.32-3.87,4.62h.8l1.8-2.16-1.1,2.16h.69l2.26-4.3,4-4.73,2.12.67-1.43,1.7-.75-.24a.32.32,0,0,0-.37.15l-1.87,3.64-2.57,3.08h.8l.51-.62-.31.62h.69l1.39-2.72,2.68-3.19,2.12.67-1.43,1.7-.31-.1a.32.32,0,0,0-.37.15l-1,2-1.29,1.54h1.19l.62-1.19,1.36-1.6,2.12.67-1.46,1.73a.36.36,0,0,0-.22.16l-.14.27h1.85l-.83-.26,1.43-1.7,2.12.67-1.09,1.3h.81l.92-1.1,2.12.67-.38.4h.81l.19-.23.71.23h2.58l1.31-1.57,3.88,1.23a.32.32,0,0,0,.37-.15L151.73,10,168,15.1l-1.28,1.54v.21L153,12.58a.32.32,0,0,0-.37.15l-7.74,15.09h.69l7.47-14.59,13.61,4.29v.1l.06-.08,2.12.67-1.43,1.7-13.1-4.13a.32.32,0,0,0-.37.15l-6.09,11.88h.69l5.82-11.37,12.6,4-.33.39v1l1-1.15,2.12.67L168.28,23l-12.66-4a.32.32,0,0,0-.37.15l-4.44,8.67h.69l4.18-8.15,12.17,3.84L166.62,25v.31l-9.62-3a.32.32,0,0,0-.37.15l-2.78,5.44h.69L157.07,23l9.61,3h0l2.12.67-1,1.23h.81l.87-1,2.12.67-.31.37h.8l.14-.17.53.16h2.05l-2.16-.68,1.44-1.71.23.07a.32.32,0,0,0,.37-.15l.83-1.61,5.87-7L177,25.2l-2.19,2.61h.81l.13-.15-.08.15h.69l1.16-2.27,5.87-7-4.18,8.19-.92,1.08h1l.38-.74,5.87-7-3.95,7.73h1l5.19-6.2-3.17,6.2h1.46l5.14-6.14,2.13.68L191.93,24l-1.81-.57a.32.32,0,0,0-.37.15l-2.16,4.19h.69l1.88-3.68,1.32.42-2.72,3.25h.81l2.56-3.06,2.11.68-1.43,1.7-1.37-.43a.32.32,0,0,0-.37.15l-.5,1h.69l.23-.46.88.27-.15.18H195l-1.54-.49,1-1.2v-.6l7.35,2.32h2.05l-11.31-3.57Zm-74.74-3.21,2.08-4.06,1,.31Zm2,1.76,1.38-2.69.69.22Zm2.19,1.54.52-1,.26.08Zm70.85-5.58-1.43,1.7-2.12-.67,1.43-1.7Zm-7.18-3.34-2-2.35,3.66,1.14,1.19,1.4-.75.89-2.11-.67h0a.29.29,0,0,0,0-.39Zm-14,0-.9-1.06,1-2,1.43,1.68-3.08,6L170,17.84l3.18-3.79a.33.33,0,0,0,0-.4Zm-3.49,0-1-1.18.33.1a.32.32,0,0,0,.37-.15l.73-1.43,1.43,1.68-1.26,2.46L169,14.83l.59-.7a.28.28,0,0,0,0-.4h0Zm-2.85-2.41L150.33,6.14a.32.32,0,0,0-.37.15L141.1,23.6l-2.95-.92.74-.88v-1l-1.38,1.64-2.12-.67,1.38-1.64,3.08,1a.32.32,0,0,0,.37-.15l8.87-17.31,18.54,5.85a.32.32,0,0,0,.37-.15l.22-.42,1.38,1.63L168.87,12l-1-.31-1.19-1.4v.94Zm-44.39-4.1L126,8.37l2.5,2.94-3.66-1.15Zm1.4,2.59-3.65-1.15-2.5-2.94,3.65,1.15ZM134.5,7.59,132.65,7l-2.5-2.94,3,1a.3.3,0,0,0,.34-.12L135,6.6Zm.92-.47,1.43,1.68-1,2-2.44-2.86,1.14.36a.32.32,0,0,0,.37-.15Zm-.62,3.38-3.65-1.15-2.5-2.94,3.65,1.15Zm-3.52,7.93,2.12.67L132,20.74l-2.12-.67Zm-.21-.71L129,17.06l1.43-1.7,2.12.66Zm3,1.57,2.12.67-1.38,1.64-2.12-.67Zm-.21-.71-2.12-.67,1.43-1.7,2.12.66ZM133,15.5l-2.12-.67.59-.7a.3.3,0,0,0,0-.4l-1-1.19L134,13.69l.2.23Zm-3.27-3.84-2.5-2.94,3.65,1.15,2.49,3Zm.4-2.67L126.4,7.84,123.9,4.9l3.65,1.16Zm-.76,3.21,1.47,1.73-.58.7L128,13.94a.27.27,0,0,0-.07-.21L125.64,11Zm.46,2.94-1.43,1.7-2.12-.67,1.43-1.7Zm-1.23,2.41,2.12.67-1.38,1.65-2.12-.67Zm.94,3,2.12.67-1.43,1.7L128,22.27Zm2.76.88,2.12.67L133,23.8l-2.12-.67Zm2.77.86,2.11.67-1.43,1.7L133.55,24Zm33.56-14,1-2L170.93,8l-1,2Zm1.81,2.14,1-2,1.43,1.68-1,2Zm8.77-1-1,2L176.7,9.74l1-2ZM178,7.19l1-2,1.4,1.67-1,2Zm-1.74,2.05-1.43-1.68,1-2,1.43,1.69Zm-.31.59-1,2-1.43-1.68,1-2Zm-2.87-.22-1.43-1.68,1-2,1.43,1.68Zm2,3.29.88,1-3.61,4.31Zm1.52,1.23a.3.3,0,0,0,0-.4l-1.21-1.43,1-2L177.83,12l-4.93,9.63L170.84,21Zm1.65-1.6,1.19,1.4-4.9,5.85Zm.31-.59,1-2L181,11.66l-1,2Zm1.31-2.56,1-2L182.34,9l-1,2Zm4.93-1.54-1.33-.42a.31.31,0,0,0-.37.15l-.45.88-1.43-1.68,1-1.91h.1Zm-1.4-2.6,3.65,1.15,2.5,2.94L185.9,8.18Zm-.62,4.31,1.43,1.68-1,2-1.43-1.68Zm.31-.59.45-.88,2,.64,2.5,2.94-3.25-1a.3.3,0,0,0-.26,0Zm6.37,6.59,2.12.67-1.43,1.7L188,17.25Zm2.55.15L189.89,15l.75-.89a.3.3,0,0,0,0-.4l-.72-.85L193.44,14Zm.77-2.57L189.13,12l-2.5-3,3.66,1.16Zm1.52-2.31-3.66-1.15-2.5-2.94,3.66,1.15ZM186.4.59l3.65,1.16,2.5,2.94L188.9,3.54Zm2.15,3.47,2.5,3-3.66-1.15-2.5-2.94Zm-7.69-2.43,2.94.92,2.49,3L182.64,4.4l-2-2.34Zm-.5,1,1.44,1.69h0l-1,1.91-1.43-1.68ZM178.51.42l1.43,1.68-1,2-1.43-1.68ZM177.2,3l1.39,1.68-1,2L176.12,5ZM175.35.79l1.39,1.68-1,2-1.43-1.68ZM174,3.41l1.43,1.68-1,2L173,5.37Zm-1.82-2.14,1.38,1.63-1,2-1.38-1.62Zm-1.3,2.56,1.37,1.61-1,2-1.38-1.62ZM169,1.64l1.43,1.68-1,2L168,3.61ZM138.68,17.92a.31.31,0,0,0,.24-.16L147.79.46l18.54,5.85a.32.32,0,0,0,.37-.15l1-1.94,1.43,1.68-1,2-1.42-1.67v1l1.12,1.31-.21.42L149,3a.32.32,0,0,0-.37.15l-8.87,17.31-2.59-.82Zm-.65-.18-1.43,1.7-2.12-.67,1.43-1.7Zm-2.33-1.38-2.12-.67,1.32-1.57A.35.35,0,0,0,135,14l2.16.68ZM137.16,14l-2.74-.87-2.5-2.94,3.65,1.15,1.85,2.16Zm1.54-3-1,2-1.43-1.68,1-2Zm-2-6.42,1.43,1.68-1,2L135.7,6.59ZM134.85,2.4,136.31,4l-1,2-1.43-1.68Zm-3-.55a.32.32,0,0,0,.37-.15L133,.19l1.43,1.68-1,2L131.67,1.8Zm-5-1.57,3.65,1.15L133,4.37l-3.65-1.15ZM129,3.76l2.47,2.94-3.65-1.15-2.5-2.94Zm-8.4-2.65,3.65,1.15,2.5,2.94L123.17,4Zm2.15,3.47,2.5,2.94-3.66-1.15-2.5-2.94ZM116,2.42l2,.64L120.58,6l-3.26-1a.39.39,0,0,0-.26,0l-1.51-1.7Zm-.75,1.47,1.43,1.68-1,2-1.43-1.68Zm-2.87-.23,1-2,1.43,1.68-1,2Zm.28,11.09.51-1,.17.19Zm.39-2.11L111.6,11l1-2L114,10.67Zm1.31-2.55L113,8.38l1-1.94,1.43,1.68Zm2.46,3.85-2,2.34,1.49-2.91Zm-.61-1.67-1.43-1.68,1-2,1.43,1.68Zm1.31-2.55L116.14,8l1-1.95L119,8.31l-.42-.13a.32.32,0,0,0-.37.15Zm2.77,4.22L117,17.83,119.54,13ZM120,11.38a.32.32,0,0,0-.37.15l-.18.34L118,10.19l.7-1.37,1.11.35,2.46,3Zm3.44,1.08-2.5-2.94,3.65,1.15,2.5,2.94Zm.07,2.82,1-1.18a.3.3,0,0,0,0-.4l-.31-.36,2.87.9-1.43,1.7Zm1,3,1.38-1.65,2.12.67L126.51,19Zm.89,3.07,1.43-1.7,2.12.67L127.43,22Zm3,3.76-2.12-.67,1.43-1.7,2.12.67Zm2.76.87L129,25.31l1.43-1.7,2.12.67Zm2.77.87-2.12-.67,1.41-1.68,2.12.67Zm2.73.88-2.12-.67,1.43-1.7,2.12.67ZM151.71,9.37h-.06a.3.3,0,0,0-.34.16l-8.86,17.31-3.54-1.12V25l-.48.57-2.12-.67,1.43-1.7,3.44,1.08a.32.32,0,0,0,.37-.15l8.86-17.3,17.11,5.41L169,14l-.59.7ZM167.17,17l1.43-1.7,1.68.53a.32.32,0,0,0,.37-.15l1.26-2.46.57.66-3.17,3.78Zm.9,3.08,1.43-1.7,2.11.66h0l-1.43,1.71Zm2.32,1.38,2.12.67-1.43,1.7L169,23.2Zm-1.16,4.58-2.12-.67,1.43-1.7,2.12.67Zm2.75.87-2.12-.67,1.43-1.7,2.12.66Zm3-3.54-1.11,1.33L171.75,24l7.42-8.84Zm1.78-2.11,4.68-9.14,1.43,1.68-.24.46Zm2.05,1.8,4.33-8.46.44-.52a.32.32,0,0,0,0-.37l1-2,1.87,2.2h0l-.36-.11a.32.32,0,0,0-.37.15l-1.09,2.12Zm2.2,1.54,4.19-8.19,1.5-1.78,2.12.67L187.35,17a.32.32,0,0,0-.28.16l-.22.43Zm2.19,1.54,4.2-8.2.2-.24,2.11.67Zm2.2,1.54,3.47-6.77,1.75.55ZM191,21l-2.12-.67,1.43-1.7,2.12.67Z" transform="translate(0 -0.01)" style="fill: #fff"/>
    <path d="M165.36,2.93,166.85,0h-.69L164.93,2.4,157.34,0h-2.05L165,3.09A.32.32,0,0,0,165.36,2.93Z" transform="translate(0 -0.01)" style="fill: #fff"/>
    <polygon points="230.57 0.04 231.26 0.04 231.28 0.02 230.3 0.02 230.33 0.04 230.57 0.04" style="fill: #fff"/>
    <polygon points="227.65 0.04 227.63 0.02 226.82 0.02 226.85 0.04 227.65 0.04" style="fill: #fff"/>
    <path d="M60,25.12l-1.39,2.71h.69l1.12-2.2,7,2.2h2L60.37,25A.3.3,0,0,0,60,25.12Z" transform="translate(0 -0.01)" style="fill: #fff"/>
    <path d="M75,21.82a.32.32,0,0,0,.37-.15l8.87-17.3,18.54,5.85a.32.32,0,0,0,.37-.15l5.13-10h-.69l-4.86,9.49L84.16,3.7a.32.32,0,0,0-.37.15l-8.87,17.3L56.38,15.31a.32.32,0,0,0-.37.15l-.45.89V17.7L56.44,16Z" transform="translate(0 -0.01)" style="fill: #fff"/>
    <path d="M27.79,24.44v-.65l-.54-.17a.32.32,0,0,0-.37.15l-2.08,4h.69l1.81-3.54Z" transform="translate(0 -0.01)" style="fill: #fff"/>
    <path d="M74,18.37l8.86-17.3L101.4,6.92a.32.32,0,0,0,.37-.15L105.21.06h-.69l-3.19,6.2L82.78.4a.32.32,0,0,0-.37.15l-8.86,17.3-18-5.67v.64l18.07,5.7A.3.3,0,0,0,74,18.37Z" transform="translate(0 -0.01)" style="fill: #fff"/>
    <path d="M55.56,9.39V10l16.73,5.3a.32.32,0,0,0,.37-.15L80.41,0h-.69L72.23,14.65Z" transform="translate(0 -0.01)" style="fill: #fff"/>
    <path d="M27.79,21.64V21l-1.88-.59a.32.32,0,0,0-.37.15l-3.73,7.27h.69L26,21Z" transform="translate(0 -0.01)" style="fill: #fff"/>
    <path d="M100.43,3.54,102.22,0h-.69L100,3,90.54,0H88.49l11.56,3.65A.3.3,0,0,0,100.43,3.54Z" transform="translate(0 -0.01)" style="fill: #fff"/>
    <path d="M55.56,6.59v.65L71,12.09a.32.32,0,0,0,.37-.15L77.42,0h-.69L70.88,11.42Z" transform="translate(0 -0.01)" style="fill: #fff"/>
    <path d="M27.79,18.85V18.2l-3.21-1a.32.32,0,0,0-.37.15L18.84,27.83h.69l5.11-10Z" transform="translate(0 -0.01)" style="fill: #fff"/>
    <path d="M99.1.32,99.24,0H97.39l1.35.42A.3.3,0,0,0,99.1.32Z" transform="translate(0 -0.01)" style="fill: #fff"/>
    <path d="M55.56,3.79v.65l14,4.44A.32.32,0,0,0,70,8.75v0L74.45,0h-.69l-4.2,8.2Z" transform="translate(0 -0.01)" style="fill: #fff"/>
    <path d="M27.79,16v-.65L23.25,14a.32.32,0,0,0-.37.15l-7,13.71h.69l6.76-13.19Z" transform="translate(0 -0.01)" style="fill: #fff"/>
    <polygon points="0.02 27.65 0.55 27.82 2.6 27.82 0.02 27.01 0.02 27.65" style="fill: #fff"/>
    <polygon points="52.57 0.04 52.48 0.02 50.43 0.02 50.52 0.04 52.57 0.04" style="fill: #fff"/>
    <polygon points="49.62 0.04 49.64 0.02 48.95 0.02 48.93 0.04 49.62 0.04" style="fill: #fff"/>
    <path d="M55.56,1v.64l12.73,4a.32.32,0,0,0,.37-.15L71.46,0h-.69L68.23,5Z" transform="translate(0 -0.01)" style="fill: #fff"/>
    <path d="M27.79,13.25V12.6l-5.88-1.85a.32.32,0,0,0-.37.15L12.87,27.83h.69L22,11.41Z" transform="translate(0 -0.01)" style="fill: #fff"/>
    <polygon points="0.02 24.85 9.43 27.82 11.48 27.82 0.02 24.21 0.02 24.85" style="fill: #fff"/>
    <polygon points="46.64 0.04 46.66 0.02 45.96 0.02 45.95 0.04 46.64 0.04" style="fill: #fff"/>
    <path d="M67.33,2.28,68.49,0H67.8l-.9,1.75L61.36,0h-2L67,2.43A.3.3,0,0,0,67.33,2.28Z" transform="translate(0 -0.01)" style="fill: #fff"/>
    <path d="M11.78,25.5,20.64,8.2l7.15,2.25V9.82L20.58,7.55a.32.32,0,0,0-.37.15L11.35,25,0,21.43v.63l11.39,3.59A.3.3,0,0,0,11.78,25.5Z" transform="translate(0 -0.01)" style="fill: #fff"/>
    <path d="M10.45,22.29,19.31,5l8.48,2.67V7L19.25,4.32a.32.32,0,0,0-.37.15L10,21.77,0,18.62v.64l10.06,3.17A.3.3,0,0,0,10.45,22.29Z" transform="translate(0 -0.01)" style="fill: #fff"/>
    <polygon points="43.66 0.04 43.68 0.02 42.99 0.02 42.97 0.04 43.66 0.04" style="fill: #fff"/>
    <polygon points="40.68 0.04 40.7 0.02 40 0.02 39.99 0.04 40.68 0.04" style="fill: #fff"/>
    <path d="M9.11,19.07,18,1.77l9.81,3.09V4.21l-9.88-3.1h-.06a.3.3,0,0,0-.34.16L8.67,18.55,0,15.82v.65l8.73,2.75A.31.31,0,0,0,9.11,19.07Z" transform="translate(0 -0.01)" style="fill: #fff"/>
    <polygon points="37.77 0.04 37.79 0.02 37.1 0.02 37.08 0.04 37.77 0.04" style="fill: #fff"/>
    <polygon points="34.79 0.04 34.81 0.02 34.12 0.02 34.1 0.04 34.79 0.04" style="fill: #fff"/>
    <polygon points="32.12 0.04 32.03 0.02 29.98 0.02 30.07 0.04 32.12 0.04" style="fill: #fff"/>
    <path d="M3.81,6.28,7,0H6.33L3.38,5.77,0,4.7v.64L3.45,6.42A.27.27,0,0,0,3.81,6.28Z" transform="translate(0 -0.01)" style="fill: #fff"/>
    <path d="M7.81,15.93,16,0h-.69L7.39,15.42,0,13.1v.66L7.43,16.1A.3.3,0,0,0,7.81,15.93Z" transform="translate(0 -0.01)" style="fill: #fff"/>
    <polygon points="27.79 1.47 23.15 0.02 21.1 0.02 27.79 2.12 27.79 1.47" style="fill: #fff"/>
    <path d="M2.48,3.06,4,0H3.33L2,2.55,0,1.9v.65l2.1.66A.3.3,0,0,0,2.48,3.06Z" transform="translate(0 -0.01)" style="fill: #fff"/>
    <path d="M6.48,12.72,13,0h-.69L6.05,12.21,0,10.3V11l6.1,1.92A.31.31,0,0,0,6.48,12.72Z" transform="translate(0 -0.01)" style="fill: #fff"/>
    <path d="M5.15,9.5,10,0H9.31L4.72,9,0,7.5v.65l4.77,1.5A.32.32,0,0,0,5.15,9.5Z" transform="translate(0 -0.01)" style="fill: #fff"/>
  </g>
</svg>
