<svg width="384" height="377" viewBox="0 0 384 377" fill="none" xmlns="http://www.w3.org/2000/svg">
<g clip-path="url(#clip0)">
<path d="M4.62451 365.352L27.7474 293.427" stroke="#ABD5D6" stroke-width="0.25" stroke-miterlimit="10"/>
<path d="M12.1196 244.758L41.0631 230.214L109.874 182.663L146.312 159.488L177.568 197.767L219.189 244.758L283.934 254.029L330.817 294.626L358.565 284.716L374.751 321.798L370.764 365.352L300.757 373.423L257.94 354.324L203.003 316.044L177.568 367.67L125.502 361.836L109.874 342.736L4.62455 365.352L146.312 89.9604L117.369 134.554L41.0631 119.529L2.31226 105.624L89.6212 3.01147L114.498 51.6805L211.056 12.2818L231.309 3.01147L219.189 60.3914L275.322 62.7089L260.811 92.278L325.635 40.652L343.575 142.705L303.07 191.374L381.13 56.8751L146.312 89.9604V159.488L27.7475 293.427L12.1196 244.758ZM12.1196 244.758L109.874 342.736L203.003 316.044L125.502 361.836L219.189 244.758L303.07 191.374L283.934 254.029L358.565 284.716L300.757 373.423L330.817 294.626L257.94 354.324L219.189 244.758L260.811 92.278L219.189 60.3914L114.498 51.6805L41.0631 119.529L12.1196 244.758ZM12.1196 244.758L2.31226 105.624L114.498 51.6805L325.635 40.652L231.309 3.01147H89.6212L211.056 12.2818L219.189 60.3914L325.635 40.652L355.136 24.429L343.575 142.705L216.877 199.526L177.568 197.767L109.874 182.663L62.4319 184.981L146.312 159.488L117.369 134.554L87.8671 104.985L41.0631 119.529V230.214L27.7475 293.427L53.1827 334.584L109.874 342.736L175.814 292.308L219.189 244.758L62.4319 184.981L343.575 142.705L146.312 159.488L283.934 254.029L146.312 89.9604L114.498 51.6805L260.811 92.278L303.07 191.374L358.565 284.716L343.575 142.705L370.764 365.352L330.817 294.626L374.751 321.798L300.757 373.423L177.568 367.67L257.94 354.324L125.502 361.836L203.003 316.044L219.189 244.758L283.934 254.029L203.003 316.044L12.1196 244.758ZM12.1196 244.758L177.568 197.767" stroke="#2D8C9E" stroke-width="0.25" stroke-miterlimit="10"/>
<path d="M44.8105 39.2136L220.625 194.571" stroke="#2D8C9E" stroke-width="0.5" stroke-miterlimit="10"/>
<path d="M357.688 254.268L48.8772 42.73" stroke="#2D8C9E" stroke-width="0.5" stroke-miterlimit="10"/>
<path d="M103.176 254.908L48.8772 42.0906" stroke="#2D8C9E" stroke-width="0.5" stroke-miterlimit="10"/>
<path d="M87.628 99.4706L48.8772 41.5312" stroke="#2D8C9E" stroke-width="0.5" stroke-miterlimit="10"/>
<path d="M60.9966 185.301L338.073 349.369" stroke="#2D8C9E" stroke-width="0.5" stroke-miterlimit="10"/>
<path d="M103.176 254.908L60.9966 185.301" stroke="#2D8C9E" stroke-width="0.5" stroke-miterlimit="10"/>
<path d="M150.618 32.2609L62.113 184.741" stroke="#2D8C9E" stroke-width="0.5" stroke-miterlimit="10"/>
<path d="M216.558 102.427L62.7507 185.301" stroke="#2D8C9E" stroke-width="0.5" stroke-miterlimit="10"/>
<path d="M358.884 253.15L63.3091 184.741" stroke="#2D8C9E" stroke-width="0.5" stroke-miterlimit="10"/>
<path d="M176.133 292.548L63.3091 184.741" stroke="#2D8C9E" stroke-width="0.5" stroke-miterlimit="10"/>
<path d="M52.8638 334.265L358.884 253.15" stroke="#2D8C9E" stroke-width="0.5" stroke-miterlimit="10"/>
<path d="M180.12 289.112L52.8638 337.221" stroke="#2D8C9E" stroke-width="0.5" stroke-miterlimit="10"/>
<path d="M88.186 104.745L52.8638 334.265" stroke="#2D8C9E" stroke-width="0.5" stroke-miterlimit="10"/>
<path d="M217.196 201.524L52.8638 334.265" stroke="#2D8C9E" stroke-width="0.5" stroke-miterlimit="10"/>
<path d="M305.063 156.291L52.8638 334.265" stroke="#2D8C9E" stroke-width="0.5" stroke-miterlimit="10"/>
<path d="M278.512 297.743L154.684 35.6973" stroke="#2D8C9E" stroke-width="0.5" stroke-miterlimit="10"/>
<path d="M340.385 347.051L279.07 297.743" stroke="#2D8C9E" stroke-width="0.5" stroke-miterlimit="10"/>
<path d="M103.814 254.268L279.628 296.624" stroke="#2D8C9E" stroke-width="0.5" stroke-miterlimit="10"/>
<path d="M217.196 199.766L279.628 296.624" stroke="#2D8C9E" stroke-width="0.5" stroke-miterlimit="10"/>
<path d="M216.558 102.427V194.571" stroke="#2D8C9E" stroke-width="0.5" stroke-miterlimit="10"/>
<path d="M355.375 24.1094L314.95 150.537" stroke="#2D8C9E" stroke-width="0.5" stroke-miterlimit="10"/>
<path d="M152.93 30.5027L356.571 21.7919" stroke="#2D8C9E" stroke-width="0.5" stroke-miterlimit="10"/>
<path d="M358.884 256.026L358.326 25.8676" stroke="#2D8C9E" stroke-width="0.5" stroke-miterlimit="10"/>
<path d="M338.631 348.809L358.326 25.8676" stroke="#2D8C9E" stroke-width="0.5" stroke-miterlimit="10"/>
<path d="M216.558 194.571L356.571 21.7919" stroke="#2D8C9E" stroke-width="0.5" stroke-miterlimit="10"/>
<path d="M217.754 102.427L108.438 253.15" stroke="#2D8C9E" stroke-width="0.5" stroke-miterlimit="10"/>
<path d="M176.133 287.354L355.375 22.4313" stroke="#2D8C9E" stroke-width="0.5" stroke-miterlimit="10"/>
<path d="M153.568 32.8203L46.5647 38.0948" stroke="#2D8C9E" stroke-width="0.5" stroke-miterlimit="10"/>
<path d="M216.558 102.427L158.193 35.1379" stroke="#2D8C9E" stroke-width="0.5" stroke-miterlimit="10"/>
<path d="M306.817 153.414L211.934 100.11" stroke="#2D8C9E" stroke-width="0.5" stroke-miterlimit="10"/>
<path d="M275.562 65.5061C276.971 65.5061 278.113 64.3612 278.113 62.9488C278.113 61.5364 276.971 60.3915 275.562 60.3915C274.152 60.3915 273.01 61.5364 273.01 62.9488C273.01 64.3612 274.152 65.5061 275.562 65.5061Z" fill="#2D8C9E"/>
<path d="M325.874 43.5291C327.283 43.5291 328.425 42.3841 328.425 40.9717C328.425 39.5594 327.283 38.4144 325.874 38.4144C324.465 38.4144 323.322 39.5594 323.322 40.9717C323.322 42.3841 324.465 43.5291 325.874 43.5291Z" fill="#2D8C9E"/>
<path d="M381.448 59.7521C382.858 59.7521 384 58.6071 384 57.1948C384 55.7824 382.858 54.6375 381.448 54.6375C380.039 54.6375 378.897 55.7824 378.897 57.1948C378.897 58.6071 380.039 59.7521 381.448 59.7521Z" fill="#2D8C9E"/>
<path d="M261.13 95.0751C262.539 95.0751 263.681 93.9301 263.681 92.5178C263.681 91.1054 262.539 89.9604 261.13 89.9604C259.72 89.9604 258.578 91.1054 258.578 92.5178C258.578 93.9301 259.72 95.0751 261.13 95.0751Z" fill="#2D8C9E"/>
<path d="M231.628 5.80861C233.037 5.80861 234.179 4.66366 234.179 3.25129C234.179 1.83892 233.037 0.69397 231.628 0.69397C230.219 0.69397 229.076 1.83892 229.076 3.25129C229.076 4.66366 230.219 5.80861 231.628 5.80861Z" fill="#2D8C9E"/>
<path d="M211.375 15.0789C212.785 15.0789 213.927 13.9339 213.927 12.5216C213.927 11.1092 212.785 9.96423 211.375 9.96423C209.966 9.96423 208.824 11.1092 208.824 12.5216C208.824 13.9339 209.966 15.0789 211.375 15.0789Z" fill="#2D8C9E"/>
<path d="M89.9402 5.80861C91.3493 5.80861 92.4917 4.66366 92.4917 3.25129C92.4917 1.83892 91.3493 0.69397 89.9402 0.69397C88.531 0.69397 87.3887 1.83892 87.3887 3.25129C87.3887 4.66366 88.531 5.80861 89.9402 5.80861Z" fill="#2D8C9E"/>
<path d="M114.817 54.5575C116.226 54.5575 117.369 53.4126 117.369 52.0002C117.369 50.5878 116.226 49.4429 114.817 49.4429C113.408 49.4429 112.266 50.5878 112.266 52.0002C112.266 53.4126 113.408 54.5575 114.817 54.5575Z" fill="#2D8C9E"/>
<path d="M2.55149 108.421C3.96065 108.421 5.10299 107.276 5.10299 105.864C5.10299 104.451 3.96065 103.307 2.55149 103.307C1.14234 103.307 0 104.451 0 105.864C0 107.276 1.14234 108.421 2.55149 108.421Z" fill="#2D8C9E"/>
<path d="M41.3022 122.327C42.7114 122.327 43.8537 121.182 43.8537 119.769C43.8537 118.357 42.7114 117.212 41.3022 117.212C39.8931 117.212 38.7507 118.357 38.7507 119.769C38.7507 121.182 39.8931 122.327 41.3022 122.327Z" fill="#2D8C9E"/>
<path d="M117.688 137.431C119.097 137.431 120.239 136.286 120.239 134.873C120.239 133.461 119.097 132.316 117.688 132.316C116.279 132.316 115.136 133.461 115.136 134.873C115.136 136.286 116.279 137.431 117.688 137.431Z" fill="#2D8C9E"/>
<path d="M146.631 92.7576C148.04 92.7576 149.183 91.6126 149.183 90.2003C149.183 88.7879 148.04 87.6429 146.631 87.6429C145.222 87.6429 144.08 88.7879 144.08 90.2003C144.08 91.6126 145.222 92.7576 146.631 92.7576Z" fill="#2D8C9E"/>
<path d="M12.4385 247.555C13.8476 247.555 14.99 246.41 14.99 244.998C14.99 243.586 13.8476 242.441 12.4385 242.441C11.0293 242.441 9.88696 243.586 9.88696 244.998C9.88696 246.41 11.0293 247.555 12.4385 247.555Z" fill="#2D8C9E"/>
<path d="M41.3022 233.091C42.7114 233.091 43.8537 231.946 43.8537 230.533C43.8537 229.121 42.7114 227.976 41.3022 227.976C39.8931 227.976 38.7507 229.121 38.7507 230.533C38.7507 231.946 39.8931 233.091 41.3022 233.091Z" fill="#2D8C9E"/>
<path d="M27.9868 296.304C29.3959 296.304 30.5383 295.159 30.5383 293.747C30.5383 292.335 29.3959 291.19 27.9868 291.19C26.5776 291.19 25.4353 292.335 25.4353 293.747C25.4353 295.159 26.5776 296.304 27.9868 296.304Z" fill="#2D8C9E"/>
<path d="M4.86375 368.149C6.2729 368.149 7.41525 367.004 7.41525 365.592C7.41525 364.179 6.2729 363.034 4.86375 363.034C3.4546 363.034 2.31226 364.179 2.31226 365.592C2.31226 367.004 3.4546 368.149 4.86375 368.149Z" fill="#2D8C9E"/>
<path d="M110.193 345.533C111.602 345.533 112.744 344.388 112.744 342.976C112.744 341.563 111.602 340.418 110.193 340.418C108.783 340.418 107.641 341.563 107.641 342.976C107.641 344.388 108.783 345.533 110.193 345.533Z" fill="#2D8C9E"/>
<path d="M125.741 364.713C127.15 364.713 128.292 363.568 128.292 362.155C128.292 360.743 127.15 359.598 125.741 359.598C124.332 359.598 123.189 360.743 123.189 362.155C123.189 363.568 124.332 364.713 125.741 364.713Z" fill="#2D8C9E"/>
<path d="M203.243 318.921C204.652 318.921 205.794 317.776 205.794 316.363C205.794 314.951 204.652 313.806 203.243 313.806C201.833 313.806 200.691 314.951 200.691 316.363C200.691 317.776 201.833 318.921 203.243 318.921Z" fill="#2D8C9E"/>
<path d="M177.807 370.467C179.217 370.467 180.359 369.322 180.359 367.909C180.359 366.497 179.217 365.352 177.807 365.352C176.398 365.352 175.256 366.497 175.256 367.909C175.256 369.322 176.398 370.467 177.807 370.467Z" fill="#2D8C9E"/>
<path d="M258.259 357.121C259.668 357.121 260.811 355.976 260.811 354.563C260.811 353.151 259.668 352.006 258.259 352.006C256.85 352.006 255.708 353.151 255.708 354.563C255.708 355.976 256.85 357.121 258.259 357.121Z" fill="#2D8C9E"/>
<path d="M300.997 376.301C302.406 376.301 303.548 375.156 303.548 373.743C303.548 372.331 302.406 371.186 300.997 371.186C299.588 371.186 298.445 372.331 298.445 373.743C298.445 375.156 299.588 376.301 300.997 376.301Z" fill="#2D8C9E"/>
<path d="M375.07 324.675C376.479 324.675 377.621 323.53 377.621 322.117C377.621 320.705 376.479 319.56 375.07 319.56C373.661 319.56 372.518 320.705 372.518 322.117C372.518 323.53 373.661 324.675 375.07 324.675Z" fill="#2D8C9E"/>
<path d="M358.884 287.593C360.293 287.593 361.435 286.448 361.435 285.036C361.435 283.624 360.293 282.479 358.884 282.479C357.475 282.479 356.332 283.624 356.332 285.036C356.332 286.448 357.475 287.593 358.884 287.593Z" fill="#2D8C9E"/>
<path d="M284.252 256.826C285.662 256.826 286.804 255.681 286.804 254.268C286.804 252.856 285.662 251.711 284.252 251.711C282.843 251.711 281.701 252.856 281.701 254.268C281.701 255.681 282.843 256.826 284.252 256.826Z" fill="#2D8C9E"/>
<path d="M219.508 247.555C220.917 247.555 222.06 246.41 222.06 244.998C222.06 243.586 220.917 242.441 219.508 242.441C218.099 242.441 216.957 243.586 216.957 244.998C216.957 246.41 218.099 247.555 219.508 247.555Z" fill="#2D8C9E"/>
<path d="M331.136 297.423C332.545 297.423 333.688 296.278 333.688 294.866C333.688 293.453 332.545 292.308 331.136 292.308C329.727 292.308 328.585 293.453 328.585 294.866C328.585 296.278 329.727 297.423 331.136 297.423Z" fill="#2D8C9E"/>
<path d="M303.309 194.251C304.718 194.251 305.86 193.106 305.86 191.694C305.86 190.282 304.718 189.137 303.309 189.137C301.9 189.137 300.757 190.282 300.757 191.694C300.757 193.106 301.9 194.251 303.309 194.251Z" fill="#2D8C9E"/>
<path d="M343.814 145.582C345.223 145.582 346.365 144.437 346.365 143.025C346.365 141.612 345.223 140.468 343.814 140.468C342.405 140.468 341.262 141.612 341.262 143.025C341.262 144.437 342.405 145.582 343.814 145.582Z" fill="#2D8C9E"/>
<path d="M219.508 63.1885C220.917 63.1885 222.06 62.0435 222.06 60.6312C222.06 59.2188 220.917 58.0739 219.508 58.0739C218.099 58.0739 216.957 59.2188 216.957 60.6312C216.957 62.0435 218.099 63.1885 219.508 63.1885Z" fill="#2D8C9E"/>
<path d="M146.631 162.365C148.04 162.365 149.183 161.22 149.183 159.807C149.183 158.395 148.04 157.25 146.631 157.25C145.222 157.25 144.08 158.395 144.08 159.807C144.08 161.22 145.222 162.365 146.631 162.365Z" fill="#2D8C9E"/>
<path d="M110.193 185.54C111.602 185.54 112.744 184.395 112.744 182.983C112.744 181.571 111.602 180.426 110.193 180.426C108.783 180.426 107.641 181.571 107.641 182.983C107.641 184.395 108.783 185.54 110.193 185.54Z" fill="#2D8C9E"/>
<path d="M177.807 200.645C179.217 200.645 180.359 199.5 180.359 198.087C180.359 196.675 179.217 195.53 177.807 195.53C176.398 195.53 175.256 196.675 175.256 198.087C175.256 199.5 176.398 200.645 177.807 200.645Z" fill="#2D8C9E"/>
<path d="M371.003 368.149C372.412 368.149 373.555 367.004 373.555 365.592C373.555 364.179 372.412 363.034 371.003 363.034C369.594 363.034 368.452 364.179 368.452 365.592C368.452 367.004 369.594 368.149 371.003 368.149Z" fill="#2D8C9E"/>
<path d="M153.01 46.5659C160.981 46.5659 167.442 40.0898 167.442 32.1011C167.442 24.1124 160.981 17.6362 153.01 17.6362C145.039 17.6362 138.578 24.1124 138.578 32.1011C138.578 40.0898 145.039 46.5659 153.01 46.5659Z" fill="#2D8C9E"/>
<path d="M153.09 31.142C151.734 31.142 150.698 30.1031 150.698 28.7446V27.3061C150.698 25.9475 151.734 24.9086 153.09 24.9086C154.445 24.9086 155.482 25.9475 155.482 27.3061V28.7446C155.482 30.1031 154.445 31.142 153.09 31.142ZM153.09 25.3082C152.053 25.3082 151.176 26.1872 151.176 27.2261V28.6646C151.176 29.7035 152.053 30.5826 153.09 30.5826C154.126 30.5826 155.003 29.7035 155.003 28.6646V27.2261C155.003 26.1872 154.206 25.3082 153.09 25.3082Z" fill="white"/>
<path d="M152.93 36.9759H148.226L149.262 33.3797C149.422 32.6604 150.14 32.1809 150.857 32.1809H155.402C155.801 32.1809 156.279 32.3407 156.598 32.6604C156.837 32.6604 156.997 32.7403 157.236 32.7403C156.837 32.101 156.199 31.7014 155.402 31.7014H150.857C149.9 31.7014 149.103 32.3407 148.784 33.2198L147.508 37.4554H153.01C153.01 37.2956 152.93 37.0558 152.93 36.9759Z" fill="white"/>
<path d="M156.518 39.3734C154.764 39.3734 153.409 37.9349 153.409 36.2566C153.409 34.4985 154.844 33.1399 156.518 33.1399C158.272 33.1399 159.628 34.5784 159.628 36.2566C159.628 37.9349 158.193 39.3734 156.518 39.3734ZM156.518 33.5395C155.083 33.5395 153.887 34.7382 153.887 36.1767C153.887 37.6152 155.083 38.8139 156.518 38.8139C157.954 38.8139 159.15 37.6152 159.15 36.1767C159.15 34.7382 157.954 33.5395 156.518 33.5395Z" fill="white"/>
<path d="M156.12 37.6153C156.04 37.6153 155.96 37.5354 155.96 37.5354L154.684 36.1768L155.003 35.8571L156.199 36.976L158.113 34.8182L158.432 35.1379L156.359 37.4555C156.279 37.5354 156.199 37.6153 156.12 37.6153Z" fill="white"/>
<path d="M305.701 175.311C316.886 175.311 325.954 166.223 325.954 155.012C325.954 143.802 316.886 134.714 305.701 134.714C294.516 134.714 285.448 143.802 285.448 155.012C285.448 166.223 294.516 175.311 305.701 175.311Z" fill="#2D8C9E"/>
<path d="M301.954 152.615C299.88 152.615 298.126 154.373 298.126 156.451C298.126 158.529 299.88 160.207 301.954 160.207C304.027 160.207 305.781 158.449 305.781 156.451C305.701 154.293 304.027 152.615 301.954 152.615ZM298.844 156.371C298.844 154.773 300.12 153.494 301.635 153.334V156.531L303.708 159.008C303.229 159.328 302.591 159.568 301.954 159.568C300.199 159.488 298.844 158.129 298.844 156.371ZM304.186 158.529L302.352 156.291V153.334C303.867 153.574 305.143 154.773 305.143 156.371C305.063 157.25 304.664 157.969 304.186 158.529Z" fill="white"/>
<path d="M308.492 156.771H307.774V159.568H308.492V156.771Z" fill="white"/>
<path d="M310.565 154.693H309.847V159.488H310.565V154.693Z" fill="white"/>
<path d="M312.638 152.615H311.92V159.488H312.638V152.615Z" fill="white"/>
<path d="M313.675 162.285H297.807C296.851 162.285 296.053 161.486 296.053 160.527V147.74H315.349V160.527C315.349 161.486 314.631 162.285 313.675 162.285ZM296.771 148.459V160.527C296.771 161.086 297.249 161.566 297.807 161.566H313.675C314.233 161.566 314.711 161.086 314.711 160.527V148.459H296.771Z" fill="white"/>
<path d="M314.711 150.537H296.771V151.256H314.711V150.537Z" fill="white"/>
<path d="M175.734 310.37C186.215 310.37 194.711 302.283 194.711 292.308C194.711 282.334 186.215 274.247 175.734 274.247C165.254 274.247 156.757 282.334 156.757 292.308C156.757 302.283 165.254 310.37 175.734 310.37Z" fill="#2D8C9E"/>
<path d="M183.309 294.786H174.458V295.425H183.309V294.786Z" fill="white"/>
<path d="M176.292 298.382H175.655V299.581H176.292V298.382Z" fill="white"/>
<path d="M180.12 299.581H174.458V300.22H180.12V299.581Z" fill="white"/>
<path d="M172.226 301.339H167.841C166.963 301.339 166.246 300.62 166.246 299.741V291.589C166.246 290.71 166.963 289.991 167.841 289.991H172.226C173.103 289.991 173.821 290.71 173.821 291.589V299.741C173.821 300.62 173.103 301.339 172.226 301.339ZM167.761 290.55C167.282 290.55 166.804 291.03 166.804 291.589V299.741C166.804 300.3 167.282 300.78 167.761 300.78H172.146C172.625 300.78 173.103 300.3 173.103 299.741V291.589C173.103 291.03 172.625 290.55 172.146 290.55H167.761Z" fill="white"/>
<path d="M171.269 299.581H168.718V300.22H171.269V299.581Z" fill="white"/>
<path d="M169.993 292.309C169.595 292.309 169.355 292.069 169.355 291.669C169.355 291.27 169.595 291.03 169.993 291.03C170.392 291.03 170.631 291.27 170.631 291.669C170.631 292.069 170.392 292.309 169.993 292.309Z" fill="white"/>
<path d="M176.372 285.116H169.674C168.797 285.116 168.08 285.755 168.08 286.634V289.352H168.718V286.634C168.718 286.155 169.196 285.755 169.674 285.755H176.053C176.133 285.516 176.292 285.276 176.372 285.116Z" fill="white"/>
<path d="M183.309 291.669V296.224C183.309 296.704 182.831 297.103 182.352 297.103H174.458V297.743H182.352C183.229 297.743 183.947 297.103 183.947 296.224V291.27C183.708 291.429 183.548 291.589 183.309 291.669Z" fill="white"/>
<path d="M180.757 291.749C178.286 291.749 176.372 289.911 176.372 287.513C176.372 285.116 178.365 283.278 180.757 283.278C183.229 283.278 185.143 285.116 185.143 287.513C185.143 289.911 183.229 291.749 180.757 291.749ZM180.757 283.917C178.684 283.917 176.93 285.516 176.93 287.513C176.93 289.511 178.605 291.11 180.757 291.11C182.831 291.11 184.585 289.511 184.585 287.513C184.585 285.516 182.831 283.917 180.757 283.917Z" fill="white"/>
<path d="M180.279 289.431C180.199 289.431 180.12 289.352 180.04 289.352L178.126 287.513L178.605 287.114L180.279 288.712L182.99 285.835L183.468 286.235L180.598 289.352C180.359 289.352 180.279 289.431 180.279 289.431Z" fill="white"/>
<path d="M335.841 365.432C347.026 365.432 356.093 356.344 356.093 345.133C356.093 333.923 347.026 324.834 335.841 324.834C324.655 324.834 315.588 333.923 315.588 345.133C315.588 356.344 324.655 365.432 335.841 365.432Z" fill="#2D8C9E"/>
<path d="M335.123 340.098H334.405V335.783H330.1V340.098H329.302V335.064H335.043V340.098H335.123Z" fill="white"/>
<path d="M331.455 337.221H330.738V339.379H331.455V337.221Z" fill="white"/>
<path d="M333.688 337.221H332.97V339.379H333.688V337.221Z" fill="white"/>
<path d="M337.276 355.283H327.229V340.818H337.276V344.414H336.558V341.537H327.947V354.563H336.558V351.686H337.276V355.283Z" fill="white"/>
<path d="M334.724 347.211L334.246 347.531L334.166 346.971H333.608V347.531L333.05 347.211L332.731 347.69L333.209 348.09L332.731 348.41L333.05 348.889L333.528 348.649L333.608 349.209H334.166L334.246 348.649L334.724 348.969L335.043 348.49L334.565 348.09L335.123 347.77L334.724 347.211Z" fill="white"/>
<path d="M338.472 347.211L337.993 347.531L337.914 346.971H337.355L337.276 347.531L336.797 347.211L336.478 347.69L336.957 348.09L336.478 348.33L336.797 348.809L337.276 348.57L337.355 349.129H337.914L337.993 348.57L338.472 348.889L338.791 348.41L338.312 348.01L338.791 347.69L338.472 347.211Z" fill="white"/>
<path d="M342.538 347.77L342.219 347.211L341.741 347.531L341.661 346.971H341.103L341.023 347.531L340.545 347.211L340.226 347.69L340.704 348.09L340.226 348.41L340.545 348.889L341.023 348.649L341.103 349.209H341.661V348.649L342.219 348.969L342.538 348.49L342.06 348.09L342.538 347.77Z" fill="white"/>
<path d="M344.452 350.967H330.738V345.133H344.452V350.967ZM331.455 350.248H343.655V345.932H331.455V350.248Z" fill="white"/>
<path d="M216.638 219.984C227.823 219.984 236.89 210.896 236.89 199.686C236.89 188.475 227.823 179.387 216.638 179.387C205.453 179.387 196.385 188.475 196.385 199.686C196.385 210.896 205.453 219.984 216.638 219.984Z" fill="#2D8C9E"/>
<path d="M225.728 205.599H224.292V204.88H225.01V190.176H213.847V190.895H213.13V189.456H225.728V205.599Z" fill="white"/>
<path d="M223.654 207.677H222.219V206.958H222.937V192.253H211.774V192.973H211.057V191.534H223.654V207.677Z" fill="white"/>
<path d="M210.738 193.692C209.781 193.692 208.983 194.491 208.983 195.45V197.288H207.548V198.007H208.983V201.444H207.548V202.163H208.983V205.679H207.548V206.399H208.983V208.157C208.983 209.116 209.781 209.915 210.738 209.915H221.581V193.852H210.738V193.692ZM220.864 209.116H210.738C210.179 209.116 209.701 208.636 209.701 208.077V206.319H211.774V205.599H209.701V202.083H211.774V201.364H209.701V197.927H211.774V197.288H209.701V195.45C209.701 194.891 210.179 194.411 210.738 194.411H220.864V209.116Z" fill="white"/>
<path d="M103.256 268.653C111.226 268.653 117.688 262.177 117.688 254.189C117.688 246.2 111.226 239.724 103.256 239.724C95.2854 239.724 88.824 246.2 88.824 254.189C88.824 262.177 95.2854 268.653 103.256 268.653Z" fill="#2D8C9E"/>
<path d="M108.837 250.752V253.229H108.359V250.752C108.359 250.353 108.04 250.033 107.641 250.033H104.213V249.553H107.641C108.279 249.633 108.837 250.113 108.837 250.752Z" fill="white"/>
<path d="M102.379 256.986V257.465H98.9503C98.3124 257.465 97.834 256.986 97.834 256.346V253.869L98.3124 253.389V256.346C98.3124 256.746 98.6313 257.066 99.03 257.066H102.379V256.986Z" fill="white"/>
<path d="M110.193 261.381L108.04 259.223H103.973C103.336 259.223 102.857 258.744 102.857 258.104V254.908C102.857 254.268 103.336 253.789 103.973 253.789H108.997C109.635 253.789 110.113 254.268 110.113 254.908V261.381H110.193ZM103.973 254.189C103.575 254.189 103.256 254.508 103.256 254.908V258.104C103.256 258.504 103.575 258.824 103.973 258.824H108.199L109.714 260.342V254.908C109.714 254.508 109.395 254.189 108.997 254.189H103.973Z" fill="white"/>
<path d="M96.3987 254.508V248.035C96.3987 247.396 96.8771 246.916 97.515 246.916H102.538C103.176 246.916 103.655 247.396 103.655 248.035V251.232C103.655 251.871 103.176 252.35 102.538 252.35H98.4718L96.3987 254.508ZM97.515 247.396C97.1163 247.396 96.7974 247.715 96.7974 248.115V253.549L98.3123 252.031H102.538C102.937 252.031 103.256 251.711 103.256 251.312V248.115C103.256 247.715 102.937 247.396 102.538 247.396H97.515Z" fill="white"/>
<path d="M357.767 268.653C365.738 268.653 372.199 262.177 372.199 254.189C372.199 246.2 365.738 239.724 357.767 239.724C349.797 239.724 343.335 246.2 343.335 254.189C343.335 262.177 349.797 268.653 357.767 268.653Z" fill="#2D8C9E"/>
<path d="M359.442 252.83V251.232C359.442 250.273 358.724 249.473 357.767 249.473C356.811 249.473 356.093 250.273 356.093 251.232V252.83H354.977V255.307C354.977 256.106 355.615 256.666 356.332 256.666H359.123C359.92 256.666 360.478 256.027 360.478 255.307V252.83H359.442ZM356.651 251.232C356.651 250.592 357.129 250.113 357.767 250.113C358.405 250.113 358.884 250.592 358.884 251.232V252.91H356.651V251.232ZM360 255.387C360 255.867 359.601 256.186 359.203 256.186H356.412C355.933 256.186 355.615 255.787 355.615 255.387V253.469H360.08V255.387H360Z" fill="white"/>
<path d="M357.767 261.94L355.535 260.262C352.983 258.344 351.389 255.547 351.229 252.51L351.07 249.713L357.289 247.555C357.528 247.476 357.927 247.476 358.246 247.555L364.465 249.713L364.306 252.51C364.146 255.547 362.551 258.424 360 260.262L357.767 261.94ZM351.628 250.113L351.708 252.51C351.867 255.467 353.382 258.184 355.774 259.942L357.688 261.381L359.601 259.942C361.993 258.184 363.508 255.467 363.668 252.51L363.827 250.113L358.007 248.035C357.847 247.955 357.608 247.955 357.448 248.035L351.628 250.113Z" fill="white"/>
<path d="M88.824 119.609C96.7945 119.609 103.256 113.133 103.256 105.145C103.256 97.1558 96.7945 90.6797 88.824 90.6797C80.8535 90.6797 74.3921 97.1558 74.3921 105.145C74.3921 113.133 80.8535 119.609 88.824 119.609Z" fill="#2D8C9E"/>
<path d="M91.6146 110.978H88.7441V108.101H91.6146V110.978ZM89.2225 110.499H91.1362V108.581H89.2225V110.499Z" fill="white"/>
<path d="M91.6146 107.542H88.7441V104.665H91.6146V107.542ZM89.2225 107.063H91.1362V105.145H89.2225V107.063Z" fill="white"/>
<path d="M88.2657 110.978H85.3953V108.101H88.2657V110.978ZM85.8737 110.499H87.7873V108.581H85.8737V110.499Z" fill="white"/>
<path d="M88.2657 107.542H85.3953V104.665H88.2657V107.542ZM85.8737 107.063H87.7873V105.145H85.8737V107.063Z" fill="white"/>
<path d="M94.1661 105.704C94.4053 105.384 94.5648 104.905 94.5648 104.425C94.5648 103.227 93.608 102.268 92.412 102.268C92.093 102.268 91.8538 102.348 91.6146 102.427C91.2159 100.669 89.701 99.3906 87.8671 99.3906C85.7143 99.3906 84.0399 101.149 84.0399 103.227C84.0399 103.386 84.0399 103.546 84.1196 103.706C84.0399 103.706 83.9601 103.706 83.8007 103.706C82.3654 103.706 81.1694 104.905 81.1694 106.343C81.1694 107.782 82.3654 108.981 83.8007 108.981H84.9967V108.501H83.8007C82.6046 108.501 81.6478 107.542 81.6478 106.343C81.6478 105.145 82.6046 104.186 83.8007 104.186C83.9601 104.186 84.1196 104.186 84.3588 104.266C84.4385 104.266 84.5183 104.266 84.598 104.186C84.6777 104.106 84.6777 104.026 84.6777 103.946C84.598 103.706 84.598 103.466 84.598 103.227C84.598 101.309 86.113 99.8701 87.9468 99.8701C89.6213 99.8701 91.0565 101.149 91.2957 102.827C91.2957 102.907 91.3754 102.987 91.4551 102.987C91.5349 103.067 91.6146 103.067 91.6943 102.987C92.0133 102.827 92.2525 102.747 92.5714 102.747C93.4485 102.747 94.2458 103.546 94.2458 104.425C94.2458 104.905 94.0066 105.384 93.608 105.704C93.5282 105.784 93.5282 105.864 93.5282 106.024C93.5282 106.184 93.6877 106.184 93.7674 106.184C93.8472 106.184 93.8472 106.184 93.9269 106.184C94.5648 106.184 95.1229 106.743 95.1229 107.382C95.1229 108.022 94.5648 108.581 93.9269 108.581H92.2525V109.06H94.0066C94.8837 109.06 95.6811 108.261 95.6811 107.382C95.4419 106.503 94.8837 105.864 94.1661 105.704Z" fill="white"/>
<path d="M62.2724 218.306C80.6354 218.306 95.5215 203.386 95.5215 184.981C95.5215 166.576 80.6354 151.656 62.2724 151.656C43.9094 151.656 29.0232 166.576 29.0232 184.981C29.0232 203.386 43.9094 218.306 62.2724 218.306Z" fill="#ABD5D6"/>
<path d="M62.2724 213.991C78.2574 213.991 91.2159 201.003 91.2159 184.981C91.2159 168.959 78.2574 155.971 62.2724 155.971C46.2873 155.971 33.3289 168.959 33.3289 184.981C33.3289 201.003 46.2873 213.991 62.2724 213.991Z" fill="white"/>
<path d="M71.7609 194.491H52.7842V175.551H71.7609V194.491ZM53.8207 193.452H70.8041V176.51H53.8207V193.452Z" fill="#00297A"/>
<path d="M66.7376 189.456H57.8074V180.506H66.8173V189.456H66.7376ZM58.6844 188.577H65.8605V181.385H58.6844V188.577Z" fill="#00297A"/>
<path d="M57.8073 170.516H56.7708V174.512H57.8073V170.516Z" fill="#00297A"/>
<path d="M62.7509 170.516H61.7144V174.512H62.7509V170.516Z" fill="#00297A"/>
<path d="M67.7741 170.516H66.7375V174.512H67.7741V170.516Z" fill="#00297A"/>
<path d="M76.7042 189.456H72.7175V190.415H76.7042V189.456Z" fill="#00297A"/>
<path d="M76.7042 184.501H72.7175V185.46H76.7042V184.501Z" fill="#00297A"/>
<path d="M76.7042 179.467H72.7175V180.426H76.7042V179.467Z" fill="#00297A"/>
<path d="M51.8273 189.456H47.8406V190.415H51.8273V189.456Z" fill="#00297A"/>
<path d="M51.8273 184.501H47.8406V185.46H51.8273V184.501Z" fill="#00297A"/>
<path d="M51.8273 179.467H47.8406V180.426H51.8273V179.467Z" fill="#00297A"/>
<path d="M57.8073 195.45H56.7708V199.446H57.8073V195.45Z" fill="#00297A"/>
<path d="M62.7509 195.45H61.7144V199.446H62.7509V195.45Z" fill="#00297A"/>
<path d="M67.7741 195.45H66.7375V199.446H67.7741V195.45Z" fill="#00297A"/>
<path d="M46.2459 62.9488C59.809 62.9488 70.804 51.9286 70.804 38.3346C70.804 24.7405 59.809 13.7203 46.2459 13.7203C32.6828 13.7203 21.6877 24.7405 21.6877 38.3346C21.6877 51.9286 32.6828 62.9488 46.2459 62.9488Z" fill="#ABD5D6"/>
<path d="M46.2459 58.6332C57.431 58.6332 66.4984 49.5452 66.4984 38.3345C66.4984 27.1238 57.431 18.0358 46.2459 18.0358C35.0608 18.0358 25.9934 27.1238 25.9934 38.3345C25.9934 49.5452 35.0608 58.6332 46.2459 58.6332Z" fill="white"/>
<path d="M46.565 39.2936L42.2593 35.1379C41.143 34.0191 41.143 32.181 42.2593 30.9823L42.4188 30.8224C42.9769 30.263 43.6945 29.9434 44.4919 29.9434C45.2892 29.9434 46.0068 30.263 46.565 30.8224L46.8042 31.0622L47.0434 30.8224C47.6015 30.263 48.3191 29.9434 49.1165 29.9434C49.9138 29.9434 50.6314 30.263 51.1896 30.8224L51.349 30.9823C52.4653 32.1011 52.4653 33.9392 51.349 35.1379L50.9504 35.5375L46.565 39.2936ZM44.4919 30.5827C43.9337 30.5827 43.3756 30.8224 42.8972 31.222L42.7377 31.3819C41.8607 32.2609 41.8607 33.6195 42.7377 34.4986L43.1364 34.8982L46.565 38.2547L50.7111 34.4986C51.5882 33.6195 51.5882 32.2609 50.7111 31.3819L50.5517 31.222C49.6746 30.3429 48.3191 30.3429 47.442 31.222L46.7244 31.9413L46.0068 31.222C45.6082 30.8224 45.1298 30.5827 44.4919 30.5827Z" fill="#00297A"/>
<path d="M56.6114 40.732C56.2924 40.1726 55.6546 39.773 55.0167 40.0128L50.1529 41.6111C50.3124 41.8509 50.3921 42.0107 50.3921 42.3304L55.2559 40.732C55.5748 40.6521 55.8938 40.812 56.0532 41.0517C56.133 41.2115 56.133 41.3714 56.0532 41.5312C55.9735 41.691 55.814 41.8509 55.7343 41.8509L48.5582 45.2073C47.9203 45.527 47.123 45.527 46.4054 45.3672L42.9768 44.4082C42.6579 44.2484 42.2592 44.1684 42.2592 44.1684C41.9403 44.0885 41.5416 44.1684 41.2227 44.3283L38.5914 45.4471L36.9968 41.9308L41.1429 40.1726C42.1795 39.773 43.3755 39.773 44.412 40.1726L48.7177 42.0906C48.8772 42.1705 49.0366 42.4103 48.9569 42.4902C48.8772 42.7299 48.638 42.8099 48.5582 42.8099L43.8539 41.7709V42.4902L48.2393 43.4492C48.7974 43.609 49.3556 43.2094 49.515 42.65C49.6745 42.1705 49.3556 41.6111 48.8772 41.3714L44.5715 39.4534C43.3755 38.9739 41.9403 38.9739 40.7443 39.4534L35.9602 41.5312L38.1928 46.3262L41.4619 44.8877C41.7808 44.7278 42.02 44.7279 42.3389 44.8078L42.5782 44.8877L46.1662 45.9266C47.0433 46.2463 47.9203 46.1663 48.7974 45.6868L55.9735 42.3304C56.2924 42.1705 56.5316 41.9308 56.6911 41.5312C56.8506 41.4513 56.8506 41.0517 56.6114 40.732Z" fill="#00297A"/>
<path d="M51.9867 355.762C62.3792 355.762 70.804 347.318 70.804 336.902C70.804 326.486 62.3792 318.042 51.9867 318.042C41.5942 318.042 33.1694 326.486 33.1694 336.902C33.1694 347.318 41.5942 355.762 51.9867 355.762Z" fill="#ABD5D6"/>
<path d="M51.9868 351.367C59.9573 351.367 66.4187 344.891 66.4187 336.902C66.4187 328.913 59.9573 322.437 51.9868 322.437C44.0163 322.437 37.5549 328.913 37.5549 336.902C37.5549 344.891 44.0163 351.367 51.9868 351.367Z" fill="white"/>
<path d="M55.4153 337.941V338.5L58.7641 336.582V342.496L55.4153 340.578V341.137L59.2425 343.295V335.703L55.4153 337.941Z" fill="#00297A"/>
<path d="M53.7408 343.694H46.9633C46.3255 343.694 45.7673 343.135 45.7673 342.496V335.943H54.9368V342.496C54.9368 343.135 54.3786 343.694 53.7408 343.694ZM46.2457 336.422V342.496C46.2457 342.895 46.5647 343.215 46.9633 343.215H53.7408C54.1394 343.215 54.4584 342.895 54.4584 342.496V336.422H46.2457Z" fill="#00297A"/>
<path d="M47.2026 334.984C45.8471 334.984 44.8105 333.945 44.8105 332.586C44.8105 331.228 45.8471 330.189 47.2026 330.189C48.5581 330.189 49.5946 331.228 49.5946 332.586C49.5946 333.945 48.5581 334.984 47.2026 334.984ZM47.2026 330.668C46.166 330.668 45.289 331.547 45.289 332.586C45.289 333.625 46.166 334.504 47.2026 334.504C48.2391 334.504 49.1162 333.625 49.1162 332.586C49.1162 331.467 48.2391 330.668 47.2026 330.668Z" fill="#00297A"/>
<path d="M53.0231 334.984C51.6676 334.984 50.6311 333.945 50.6311 332.586C50.6311 331.228 51.6676 330.189 53.0231 330.189C54.3786 330.189 55.4152 331.228 55.4152 332.586C55.4152 333.945 54.3786 334.984 53.0231 334.984ZM53.0231 330.668C51.9866 330.668 51.1095 331.547 51.1095 332.586C51.1095 333.625 51.9866 334.504 53.0231 334.504C54.0597 334.504 54.9367 333.625 54.9367 332.586C54.9367 331.467 54.0597 330.668 53.0231 330.668Z" fill="#00297A"/>
<path d="M278.193 322.117C291.756 322.117 302.751 311.097 302.751 297.503C302.751 283.909 291.756 272.889 278.193 272.889C264.63 272.889 253.635 283.909 253.635 297.503C253.635 311.097 264.63 322.117 278.193 322.117Z" fill="#ABD5D6"/>
<path d="M278.193 317.802C289.378 317.802 298.445 308.714 298.445 297.503C298.445 286.293 289.378 277.204 278.193 277.204C267.008 277.204 257.94 286.293 257.94 297.503C257.94 308.714 267.008 317.802 278.193 317.802Z" fill="white"/>
<path d="M279.628 287.114C279.389 286.874 279.149 286.714 278.91 286.555C278.591 286.395 278.352 286.395 278.033 286.395C277.714 286.395 277.395 286.475 277.156 286.555C276.837 286.714 276.598 286.874 276.439 287.114C276.199 287.354 276.12 287.673 275.96 287.913C275.88 288.233 275.88 288.553 275.88 288.872L276.757 294.546C276.917 294.386 277.156 294.307 277.395 294.307L276.518 288.792C276.518 288.553 276.518 288.393 276.518 288.153C276.598 287.913 276.678 287.753 276.837 287.594C276.997 287.434 277.156 287.274 277.316 287.194C277.475 287.114 277.714 287.034 277.953 287.034C278.193 287.034 278.352 287.114 278.591 287.194C278.751 287.274 278.99 287.434 279.07 287.594C279.229 287.753 279.309 287.993 279.389 288.153C279.468 288.393 279.468 288.553 279.389 288.792L278.591 294.307C278.831 294.386 278.99 294.466 279.229 294.546L280.106 288.872C280.186 288.553 280.106 288.233 280.027 287.913C280.027 287.594 279.867 287.354 279.628 287.114Z" fill="#00297A"/>
<path d="M276.04 298.222L272.452 301.019C272.292 301.179 272.053 301.259 271.894 301.259C271.734 301.259 271.495 301.339 271.256 301.259C271.017 301.179 270.857 301.099 270.698 301.019C270.538 300.86 270.379 300.7 270.299 300.54C270.219 300.38 270.139 300.14 270.139 299.901C270.139 299.661 270.139 299.501 270.219 299.261C270.299 299.022 270.379 298.862 270.538 298.702C270.698 298.542 270.857 298.462 271.096 298.382L275.641 296.704C275.641 296.624 275.641 296.624 275.641 296.544C275.641 296.304 275.641 296.145 275.721 295.905L270.937 297.663C270.618 297.743 270.379 297.903 270.139 298.142C269.9 298.382 269.741 298.622 269.661 298.942C269.581 299.261 269.502 299.581 269.502 299.821C269.502 300.14 269.581 300.46 269.741 300.7C269.9 300.939 270.06 301.179 270.379 301.419C270.618 301.579 270.937 301.739 271.176 301.819C271.335 301.819 271.495 301.898 271.654 301.898C272.133 301.898 272.611 301.739 272.93 301.419L276.678 298.542C276.359 298.542 276.199 298.382 276.04 298.222Z" fill="#00297A"/>
<path d="M287.203 299.101C287.123 298.782 286.884 298.542 286.724 298.302C286.485 298.063 286.246 297.903 285.927 297.823L280.345 295.825C280.425 296.065 280.505 296.304 280.505 296.624L285.688 298.542C286.007 298.622 286.246 298.862 286.405 299.101C286.565 299.341 286.644 299.661 286.644 299.981C286.644 300.22 286.565 300.46 286.485 300.7C286.405 300.86 286.246 301.019 286.086 301.179C285.927 301.339 285.688 301.419 285.528 301.419C285.289 301.499 285.13 301.499 284.89 301.419C284.651 301.339 284.492 301.259 284.332 301.179L280.266 298.063C280.186 298.222 280.027 298.462 279.867 298.622L283.934 301.739C284.332 302.058 284.811 302.218 285.209 302.218C285.369 302.218 285.528 302.218 285.608 302.138C285.927 302.058 286.166 301.978 286.485 301.739C286.804 301.499 286.963 301.339 287.123 301.019C287.282 300.78 287.362 300.46 287.362 300.14C287.362 299.661 287.282 299.341 287.203 299.101Z" fill="#00297A"/>
<path d="M278.352 305.655V299.102C278.113 299.102 277.874 299.102 277.714 299.102V305.655H271.734V306.294H284.332V305.655H278.352Z" fill="#00297A"/>
<path d="M278.033 298.462C277.635 298.462 277.316 298.382 276.997 298.142C276.678 297.903 276.439 297.663 276.359 297.343C276.199 297.024 276.199 296.624 276.279 296.304C276.359 295.985 276.518 295.585 276.757 295.345C276.997 295.106 277.316 294.946 277.714 294.866C278.113 294.786 278.432 294.866 278.751 294.946C279.07 295.106 279.389 295.345 279.548 295.585C279.787 295.905 279.867 296.224 279.867 296.624C279.867 297.103 279.708 297.583 279.309 297.903C278.99 298.302 278.512 298.462 278.033 298.462ZM278.033 295.505C277.794 295.505 277.555 295.585 277.395 295.665C277.236 295.825 277.076 295.985 276.997 296.224C276.917 296.464 276.917 296.704 276.917 296.864C276.997 297.104 277.076 297.263 277.236 297.423C277.395 297.583 277.635 297.663 277.794 297.743C278.033 297.823 278.272 297.743 278.432 297.663C278.671 297.583 278.831 297.423 278.99 297.263C279.149 297.104 279.149 296.864 279.149 296.624C279.149 296.304 278.99 295.985 278.831 295.825C278.591 295.585 278.352 295.505 278.033 295.505Z" fill="#00297A"/>
<path d="M285.289 293.028C285.13 293.028 285.05 293.028 284.89 293.028C284.492 292.948 284.093 292.788 283.774 292.468C283.455 292.229 283.216 291.829 283.056 291.429C282.897 290.87 282.897 290.231 283.136 289.671V289.591C283.694 288.473 284.89 286.475 284.89 286.475L285.209 285.995L285.528 286.475C285.608 286.555 286.884 288.792 287.282 289.591V289.671C287.442 289.991 287.522 290.311 287.522 290.63C287.522 290.95 287.442 291.27 287.362 291.509C287.282 291.829 287.043 292.069 286.884 292.229C286.645 292.468 286.405 292.628 286.166 292.708C285.927 292.948 285.608 293.028 285.289 293.028ZM283.854 289.911C283.774 290.151 283.694 290.391 283.694 290.55C283.694 290.79 283.694 290.95 283.774 291.19C283.854 291.509 284.013 291.749 284.252 291.909C284.492 292.069 284.731 292.229 285.05 292.309C285.369 292.388 285.688 292.309 285.927 292.229C286.246 292.149 286.485 291.909 286.645 291.669C286.804 291.43 286.963 291.11 286.963 290.79C286.963 290.471 286.963 290.151 286.804 289.911V289.831C286.485 289.192 285.767 287.993 285.369 287.274C284.89 287.993 284.252 289.112 283.854 289.911Z" fill="#00297A"/>
<path d="M355.216 40.8919C365.608 40.8919 374.033 32.4479 374.033 22.0316C374.033 11.6154 365.608 3.17139 355.216 3.17139C344.823 3.17139 336.399 11.6154 336.399 22.0316C336.399 32.4479 344.823 40.8919 355.216 40.8919Z" fill="#ABD5D6"/>
<path d="M355.216 36.4965C363.186 36.4965 369.648 30.0203 369.648 22.0316C369.648 14.0429 363.186 7.56677 355.216 7.56677C347.245 7.56677 340.784 14.0429 340.784 22.0316C340.784 30.0203 347.245 36.4965 355.216 36.4965Z" fill="white"/>
<path d="M361.435 26.507H348.917V27.0664H361.435V26.507Z" fill="#00297A"/>
<path d="M361.436 18.3555H348.439L354.26 14.04C354.659 13.7204 355.297 13.7204 355.695 14.04L361.436 18.3555ZM349.875 17.876H360.001L355.376 14.3597C355.137 14.1999 354.738 14.1999 354.499 14.3597L349.875 17.876Z" fill="#00297A"/>
<path d="M355.216 24.4292H354.658C354.02 24.4292 353.462 23.9497 353.462 23.3103H353.94C353.94 23.63 354.259 23.9497 354.578 23.9497H355.136C355.535 23.9497 355.774 23.63 355.774 23.3103C355.774 22.9907 355.455 22.671 355.136 22.671H354.578C353.94 22.671 353.382 22.1915 353.382 21.5522C353.382 20.9128 353.94 20.4333 354.578 20.4333H355.136C355.774 20.4333 356.332 20.9128 356.332 21.5522H355.854C355.854 21.2325 355.535 20.9128 355.216 20.9128H354.658C354.259 20.9128 354.02 21.2325 354.02 21.5522C354.02 21.8718 354.339 22.1915 354.658 22.1915H355.216C355.854 22.1915 356.412 22.671 356.412 23.3103C356.412 23.9497 355.854 24.4292 355.216 24.4292Z" fill="#00297A"/>
<path d="M355.216 19.7141H354.738V20.5932H355.216V19.7141Z" fill="#00297A"/>
<path d="M355.216 24.3492H354.738V25.2283H355.216V24.3492Z" fill="#00297A"/>
<path d="M362.392 27.5459H347.96V28.0254H362.392V27.5459Z" fill="#00297A"/>
<path d="M360 18.835H359.522V26.1073H360V18.835Z" fill="#00297A"/>
<path d="M358.086 18.835H357.608V26.1073H358.086V18.835Z" fill="#00297A"/>
<path d="M352.266 18.835H351.787V26.1073H352.266V18.835Z" fill="#00297A"/>
<path d="M350.352 18.835H349.874V26.1073H350.352V18.835Z" fill="#00297A"/>
<path d="M217.196 127.601C230.759 127.601 241.754 116.581 241.754 102.987C241.754 89.3927 230.759 78.3726 217.196 78.3726C203.633 78.3726 192.638 89.3927 192.638 102.987C192.638 116.581 203.633 127.601 217.196 127.601Z" fill="#ABD5D6"/>
<path d="M217.196 123.285C228.381 123.285 237.449 114.197 237.449 102.987C237.449 91.776 228.381 82.688 217.196 82.688C206.011 82.688 196.944 91.776 196.944 102.987C196.944 114.197 206.011 123.285 217.196 123.285Z" fill="white"/>
<path d="M224.93 100.829H209.382V101.468H224.93V100.829Z" fill="#00297A"/>
<path d="M225.568 108.261H208.665V108.901H225.568V108.261Z" fill="#00297A"/>
<path d="M226.924 109.62H207.389V110.259H226.924V109.62Z" fill="#00297A"/>
<path d="M210.738 102.188H210.1V107.622H210.738V102.188Z" fill="#00297A"/>
<path d="M214.166 102.188H213.528V107.622H214.166V102.188Z" fill="#00297A"/>
<path d="M217.515 102.188H216.877V107.622H217.515V102.188Z" fill="#00297A"/>
<path d="M220.864 102.188H220.226V107.622H220.864V102.188Z" fill="#00297A"/>
<path d="M224.213 102.188H223.575V107.622H224.213V102.188Z" fill="#00297A"/>
<path d="M220.864 89.9604H218.472C217.515 89.9604 216.797 90.6797 216.797 91.6387V92.278V92.5977V93.9563H217.435V92.5977H220.784V89.9604H220.864ZM220.226 92.0383H217.515V91.7186C217.515 91.1592 217.993 90.6797 218.552 90.6797H220.226V92.0383Z" fill="#00297A"/>
<path d="M222.937 100.11H222.299C222.299 97.4726 219.987 95.3948 217.276 95.3948C214.485 95.3948 212.253 97.4726 212.253 100.11H211.615C211.615 97.1529 214.166 94.6755 217.356 94.6755C220.306 94.7555 222.937 97.1529 222.937 100.11Z" fill="#00297A"/>
</g>
<defs>
<clipPath id="clip0">
<rect width="384" height="375.607" fill="white" transform="translate(0 0.69397)"/>
</clipPath>
</defs>
</svg>
